<svg width="209" height="92" viewBox="0 0 209 92" fill="none" xmlns="http://www.w3.org/2000/svg">
<g filter="url(#filter0_dd_210_4)">
<mask id="path-1-outside-1_210_4" maskUnits="userSpaceOnUse" x="11" y="15.6846" width="185" height="63" fill="black">
<rect fill="white" x="11" y="15.6846" width="185" height="63"/>
<path d="M37.864 70.3886C36.1573 70.3886 34.3653 70.2606 32.488 70.0046C30.6533 69.7912 28.904 69.4499 27.24 68.9806C25.576 68.5112 24.0827 67.9566 22.76 67.3166C21.608 66.7619 20.7973 66.0366 20.328 65.1406C19.8587 64.2019 19.688 63.2206 19.816 62.1966C19.944 61.1726 20.3067 60.2766 20.904 59.5086C21.5013 58.6979 22.2907 58.1646 23.272 57.9086C24.2533 57.6099 25.3627 57.7379 26.6 58.2926C28.2213 59.0606 30.056 59.6579 32.104 60.0846C34.152 60.5112 36.072 60.7246 37.864 60.7246C40.68 60.7246 42.6427 60.3619 43.752 59.6366C44.904 58.8686 45.48 57.9299 45.48 56.8206C45.48 55.8392 45.0747 55.0499 44.264 54.4526C43.496 53.8552 42.1093 53.3432 40.104 52.9166L32.616 51.3166C28.52 50.4632 25.4693 48.9699 23.464 46.8366C21.4587 44.7032 20.456 41.9512 20.456 38.5806C20.456 36.3619 20.904 34.3566 21.8 32.5646C22.7387 30.7299 24.04 29.1726 25.704 27.8926C27.4107 26.6126 29.416 25.6312 31.72 24.9486C34.0667 24.2232 36.6693 23.8606 39.528 23.8606C41.7467 23.8606 43.9867 24.1166 46.248 24.6286C48.552 25.0979 50.536 25.8232 52.2 26.8046C53.1813 27.3166 53.8853 28.0206 54.312 28.9166C54.7387 29.8126 54.9093 30.7512 54.824 31.7326C54.7387 32.6712 54.3973 33.5032 53.8 34.2286C53.2453 34.9539 52.4773 35.4446 51.496 35.7006C50.5573 35.9139 49.4267 35.7432 48.104 35.1886C46.8667 34.6339 45.4587 34.2286 43.88 33.9726C42.344 33.6739 40.8507 33.5246 39.4 33.5246C37.8213 33.5246 36.4773 33.7166 35.368 34.1006C34.2587 34.4419 33.4053 34.9539 32.808 35.6366C32.2533 36.3192 31.976 37.1086 31.976 38.0046C31.976 38.9006 32.3387 39.6686 33.064 40.3086C33.832 40.9059 35.2187 41.4179 37.224 41.8446L44.648 43.4446C48.7867 44.3406 51.88 45.8126 53.928 47.8606C55.976 49.9086 57 52.5752 57 55.8606C57 58.0792 56.552 60.0846 55.656 61.8766C54.76 63.6686 53.48 65.2046 51.816 66.4846C50.152 67.7219 48.1467 68.6819 45.8 69.3646C43.4533 70.0472 40.808 70.3886 37.864 70.3886ZM68.0315 70.2606C66.1542 70.2606 64.7035 69.7486 63.6795 68.7246C62.6555 67.6579 62.1435 66.1646 62.1435 64.2446V30.0046C62.1435 28.0419 62.6555 26.5486 63.6795 25.5246C64.7035 24.5006 66.1542 23.9886 68.0315 23.9886C69.9515 23.9886 71.4022 24.5006 72.3835 25.5246C73.4075 26.5486 73.9195 28.0419 73.9195 30.0046V64.2446C73.9195 66.1646 73.4288 67.6579 72.4475 68.7246C71.4662 69.7486 69.9942 70.2606 68.0315 70.2606ZM86.881 70.2606C85.1743 70.2606 83.8517 69.7912 82.913 68.8526C82.017 67.9139 81.569 66.5912 81.569 64.8846V29.3646C81.569 27.6152 82.0597 26.2926 83.041 25.3966C84.0223 24.4579 85.409 23.9886 87.201 23.9886C88.6943 23.9886 89.8677 24.2872 90.721 24.8846C91.617 25.4392 92.4277 26.3779 93.153 27.7006L106.913 52.4046H104.673L118.369 27.7006C119.137 26.3779 119.948 25.4392 120.801 24.8846C121.697 24.2872 122.892 23.9886 124.385 23.9886C126.092 23.9886 127.393 24.4579 128.289 25.3966C129.228 26.2926 129.697 27.6152 129.697 29.3646V64.8846C129.697 66.5912 129.249 67.9139 128.353 68.8526C127.457 69.7912 126.134 70.2606 124.385 70.2606C122.678 70.2606 121.356 69.7912 120.417 68.8526C119.521 67.9139 119.073 66.5912 119.073 64.8846V42.8686H120.417L110.113 60.7886C109.516 61.7272 108.876 62.4312 108.193 62.9006C107.553 63.3699 106.678 63.6046 105.569 63.6046C104.502 63.6046 103.628 63.3699 102.945 62.9006C102.262 62.4312 101.644 61.7272 101.089 60.7886L90.721 42.8046H92.193V64.8846C92.193 66.5912 91.745 67.9139 90.849 68.8526C89.953 69.7912 88.6303 70.2606 86.881 70.2606ZM139.476 70.2606C138.153 70.2606 137.044 69.9619 136.148 69.3646C135.252 68.7246 134.697 67.8712 134.484 66.8046C134.27 65.6952 134.462 64.4579 135.06 63.0926L150.996 28.7886C151.764 27.1246 152.702 25.9086 153.812 25.1406C154.964 24.3726 156.265 23.9886 157.716 23.9886C159.166 23.9886 160.425 24.3726 161.492 25.1406C162.601 25.9086 163.561 27.1246 164.372 28.7886L180.308 63.0926C180.99 64.4579 181.225 65.6952 181.012 66.8046C180.841 67.9139 180.308 68.7672 179.412 69.3646C178.558 69.9619 177.492 70.2606 176.212 70.2606C174.505 70.2606 173.182 69.8766 172.244 69.1086C171.348 68.3406 170.537 67.1032 169.812 65.3966L166.356 57.2686L170.836 60.5326H144.468L149.012 57.2686L145.556 65.3966C144.788 67.1032 143.998 68.3406 143.188 69.1086C142.377 69.8766 141.14 70.2606 139.476 70.2606ZM157.588 36.8526L150.164 54.5806L148.372 51.5086H166.996L165.204 54.5806L157.716 36.8526H157.588Z"/>
</mask>
<path d="M37.864 70.3886C36.1573 70.3886 34.3653 70.2606 32.488 70.0046C30.6533 69.7912 28.904 69.4499 27.24 68.9806C25.576 68.5112 24.0827 67.9566 22.76 67.3166C21.608 66.7619 20.7973 66.0366 20.328 65.1406C19.8587 64.2019 19.688 63.2206 19.816 62.1966C19.944 61.1726 20.3067 60.2766 20.904 59.5086C21.5013 58.6979 22.2907 58.1646 23.272 57.9086C24.2533 57.6099 25.3627 57.7379 26.6 58.2926C28.2213 59.0606 30.056 59.6579 32.104 60.0846C34.152 60.5112 36.072 60.7246 37.864 60.7246C40.68 60.7246 42.6427 60.3619 43.752 59.6366C44.904 58.8686 45.48 57.9299 45.48 56.8206C45.48 55.8392 45.0747 55.0499 44.264 54.4526C43.496 53.8552 42.1093 53.3432 40.104 52.9166L32.616 51.3166C28.52 50.4632 25.4693 48.9699 23.464 46.8366C21.4587 44.7032 20.456 41.9512 20.456 38.5806C20.456 36.3619 20.904 34.3566 21.8 32.5646C22.7387 30.7299 24.04 29.1726 25.704 27.8926C27.4107 26.6126 29.416 25.6312 31.72 24.9486C34.0667 24.2232 36.6693 23.8606 39.528 23.8606C41.7467 23.8606 43.9867 24.1166 46.248 24.6286C48.552 25.0979 50.536 25.8232 52.2 26.8046C53.1813 27.3166 53.8853 28.0206 54.312 28.9166C54.7387 29.8126 54.9093 30.7512 54.824 31.7326C54.7387 32.6712 54.3973 33.5032 53.8 34.2286C53.2453 34.9539 52.4773 35.4446 51.496 35.7006C50.5573 35.9139 49.4267 35.7432 48.104 35.1886C46.8667 34.6339 45.4587 34.2286 43.88 33.9726C42.344 33.6739 40.8507 33.5246 39.4 33.5246C37.8213 33.5246 36.4773 33.7166 35.368 34.1006C34.2587 34.4419 33.4053 34.9539 32.808 35.6366C32.2533 36.3192 31.976 37.1086 31.976 38.0046C31.976 38.9006 32.3387 39.6686 33.064 40.3086C33.832 40.9059 35.2187 41.4179 37.224 41.8446L44.648 43.4446C48.7867 44.3406 51.88 45.8126 53.928 47.8606C55.976 49.9086 57 52.5752 57 55.8606C57 58.0792 56.552 60.0846 55.656 61.8766C54.76 63.6686 53.48 65.2046 51.816 66.4846C50.152 67.7219 48.1467 68.6819 45.8 69.3646C43.4533 70.0472 40.808 70.3886 37.864 70.3886ZM68.0315 70.2606C66.1542 70.2606 64.7035 69.7486 63.6795 68.7246C62.6555 67.6579 62.1435 66.1646 62.1435 64.2446V30.0046C62.1435 28.0419 62.6555 26.5486 63.6795 25.5246C64.7035 24.5006 66.1542 23.9886 68.0315 23.9886C69.9515 23.9886 71.4022 24.5006 72.3835 25.5246C73.4075 26.5486 73.9195 28.0419 73.9195 30.0046V64.2446C73.9195 66.1646 73.4288 67.6579 72.4475 68.7246C71.4662 69.7486 69.9942 70.2606 68.0315 70.2606ZM86.881 70.2606C85.1743 70.2606 83.8517 69.7912 82.913 68.8526C82.017 67.9139 81.569 66.5912 81.569 64.8846V29.3646C81.569 27.6152 82.0597 26.2926 83.041 25.3966C84.0223 24.4579 85.409 23.9886 87.201 23.9886C88.6943 23.9886 89.8677 24.2872 90.721 24.8846C91.617 25.4392 92.4277 26.3779 93.153 27.7006L106.913 52.4046H104.673L118.369 27.7006C119.137 26.3779 119.948 25.4392 120.801 24.8846C121.697 24.2872 122.892 23.9886 124.385 23.9886C126.092 23.9886 127.393 24.4579 128.289 25.3966C129.228 26.2926 129.697 27.6152 129.697 29.3646V64.8846C129.697 66.5912 129.249 67.9139 128.353 68.8526C127.457 69.7912 126.134 70.2606 124.385 70.2606C122.678 70.2606 121.356 69.7912 120.417 68.8526C119.521 67.9139 119.073 66.5912 119.073 64.8846V42.8686H120.417L110.113 60.7886C109.516 61.7272 108.876 62.4312 108.193 62.9006C107.553 63.3699 106.678 63.6046 105.569 63.6046C104.502 63.6046 103.628 63.3699 102.945 62.9006C102.262 62.4312 101.644 61.7272 101.089 60.7886L90.721 42.8046H92.193V64.8846C92.193 66.5912 91.745 67.9139 90.849 68.8526C89.953 69.7912 88.6303 70.2606 86.881 70.2606ZM139.476 70.2606C138.153 70.2606 137.044 69.9619 136.148 69.3646C135.252 68.7246 134.697 67.8712 134.484 66.8046C134.27 65.6952 134.462 64.4579 135.06 63.0926L150.996 28.7886C151.764 27.1246 152.702 25.9086 153.812 25.1406C154.964 24.3726 156.265 23.9886 157.716 23.9886C159.166 23.9886 160.425 24.3726 161.492 25.1406C162.601 25.9086 163.561 27.1246 164.372 28.7886L180.308 63.0926C180.99 64.4579 181.225 65.6952 181.012 66.8046C180.841 67.9139 180.308 68.7672 179.412 69.3646C178.558 69.9619 177.492 70.2606 176.212 70.2606C174.505 70.2606 173.182 69.8766 172.244 69.1086C171.348 68.3406 170.537 67.1032 169.812 65.3966L166.356 57.2686L170.836 60.5326H144.468L149.012 57.2686L145.556 65.3966C144.788 67.1032 143.998 68.3406 143.188 69.1086C142.377 69.8766 141.14 70.2606 139.476 70.2606ZM157.588 36.8526L150.164 54.5806L148.372 51.5086H166.996L165.204 54.5806L157.716 36.8526H157.588Z" fill="white"/>
<path d="M32.488 70.0046L33.5689 62.0779L33.4906 62.0672L33.412 62.0581L32.488 70.0046ZM22.76 67.3166L26.2445 60.1153L26.2375 60.1119L26.2305 60.1086L22.76 67.3166ZM20.328 65.1406L13.1726 68.7183L13.2063 68.7858L13.2413 68.8526L20.328 65.1406ZM19.816 62.1966L27.7542 63.1888L19.816 62.1966ZM20.904 59.5086L27.2188 64.4201L27.2827 64.3379L27.3444 64.2542L20.904 59.5086ZM23.272 57.9086L25.2914 65.6495L25.4472 65.6089L25.6013 65.562L23.272 57.9086ZM26.6 58.2926L30.0247 51.0627L29.9489 51.0268L29.8724 50.9925L26.6 58.2926ZM32.104 60.0846L33.7356 52.2527L32.104 60.0846ZM43.752 59.6366L48.13 66.3323L48.1599 66.3128L48.1896 66.293L43.752 59.6366ZM44.264 54.4526L39.3525 60.7674L39.4346 60.8313L39.5184 60.893L44.264 54.4526ZM40.104 52.9166L38.4323 60.74L38.4391 60.7414L40.104 52.9166ZM32.616 51.3166L34.2877 43.4932L34.2677 43.4889L34.2476 43.4847L32.616 51.3166ZM23.464 46.8366L29.293 41.3573H29.293L23.464 46.8366ZM21.8 32.5646L14.678 28.9208L14.6611 28.9537L14.6446 28.9869L21.8 32.5646ZM25.704 27.8926L20.904 21.4926L20.865 21.5218L20.8263 21.5516L25.704 27.8926ZM31.72 24.9486L33.9927 32.6189L34.0377 32.6056L34.0824 32.5918L31.72 24.9486ZM46.248 24.6286L44.4814 32.4311L44.5661 32.4502L44.6512 32.4676L46.248 24.6286ZM52.2 26.8046L48.1361 33.6955L48.3152 33.8011L48.4995 33.8973L52.2 26.8046ZM54.312 28.9166L47.0891 32.356L47.0891 32.3561L54.312 28.9166ZM54.824 31.7326L62.7911 32.4568L62.7926 32.4412L62.7939 32.4256L54.824 31.7326ZM53.8 34.2286L47.6246 29.1429L47.5328 29.2543L47.4451 29.369L53.8 34.2286ZM51.496 35.7006L53.269 43.5016L53.3926 43.4735L53.5154 43.4415L51.496 35.7006ZM48.104 35.1886L44.8316 42.4886L44.9204 42.5285L45.0102 42.5661L48.104 35.1886ZM43.88 33.9726L42.3531 41.8255L42.4759 41.8494L42.5994 41.8694L43.88 33.9726ZM35.368 34.1006L37.7207 41.7468L37.8535 41.7059L37.9849 41.6605L35.368 34.1006ZM32.808 35.6366L26.7874 30.3685L26.6912 30.4785L26.5991 30.5918L32.808 35.6366ZM33.064 40.3086L27.771 46.3073L27.9569 46.4712L28.1525 46.6234L33.064 40.3086ZM37.224 41.8446L38.9094 34.0241L38.8992 34.0219L38.8889 34.0197L37.224 41.8446ZM44.648 43.4446L46.3407 35.6257L46.3334 35.6241L44.648 43.4446ZM55.656 61.8766L62.8114 65.4543L62.8114 65.4543L55.656 61.8766ZM51.816 66.4846L56.5896 72.9043L56.642 72.8653L56.6937 72.8256L51.816 66.4846ZM45.8 69.3646L48.0346 77.0461H48.0346L45.8 69.3646ZM37.864 70.3886V62.3886C36.5558 62.3886 35.1265 62.2903 33.5689 62.0779L32.488 70.0046L31.4071 77.9312C33.6041 78.2308 35.7589 78.3886 37.864 78.3886V70.3886ZM32.488 70.0046L33.412 62.0581C31.9707 61.8905 30.6403 61.6275 29.4117 61.281L27.24 68.9806L25.0683 76.6802C27.1677 77.2723 29.336 77.692 31.564 77.951L32.488 70.0046ZM27.24 68.9806L29.4117 61.281C28.1224 60.9173 27.0789 60.519 26.2445 60.1153L22.76 67.3166L19.2755 74.5178C21.0864 75.3941 23.0296 76.1052 25.0683 76.6802L27.24 68.9806ZM22.76 67.3166L26.2305 60.1086C26.2149 60.101 26.8963 60.439 27.4147 61.4285L20.328 65.1406L13.2413 68.8526C14.6983 71.6342 17.0011 73.4228 19.2895 74.5246L22.76 67.3166ZM20.328 65.1406L27.4834 61.5629C27.5782 61.7525 27.6746 62.0133 27.7297 62.3298C27.7849 62.6475 27.7849 62.9433 27.7542 63.1888L19.816 62.1966L11.8778 61.2043C11.5504 63.8235 12.0097 66.3924 13.1726 68.7183L20.328 65.1406ZM19.816 62.1966L27.7542 63.1888C27.7378 63.32 27.696 63.5199 27.5996 63.7581C27.5021 63.999 27.3704 64.2251 27.2188 64.4201L20.904 59.5086L14.5892 54.597C13.0537 56.5712 12.1731 58.8418 11.8778 61.2043L19.816 62.1966ZM20.904 59.5086L27.3444 64.2542C27.1326 64.5416 26.827 64.8562 26.4229 65.1293C26.0193 65.4019 25.6207 65.5636 25.2914 65.6495L23.272 57.9086L21.2526 50.1676C18.5119 50.8826 16.1565 52.4655 14.4636 54.763L20.904 59.5086ZM23.272 57.9086L25.6013 65.562C24.208 65.986 23.2771 65.57 23.3276 65.5926L26.6 58.2926L29.8724 50.9925C27.4482 49.9058 24.2987 49.2338 20.9427 50.2552L23.272 57.9086ZM26.6 58.2926L23.1753 65.5225C25.4536 66.6017 27.9046 67.3815 30.4724 67.9164L32.104 60.0846L33.7356 52.2527C32.2074 51.9343 30.989 51.5195 30.0247 51.0627L26.6 58.2926ZM32.104 60.0846L30.4724 67.9164C32.9703 68.4368 35.4417 68.7246 37.864 68.7246V60.7246V52.7246C36.7023 52.7246 35.3337 52.5857 33.7356 52.2527L32.104 60.0846ZM37.864 60.7246V68.7246C40.8356 68.7246 44.9042 68.4415 48.13 66.3323L43.752 59.6366L39.374 52.9408C39.7353 52.7046 40.0039 52.6018 40.0892 52.5716C40.1782 52.54 40.1596 52.5552 39.9943 52.5857C39.6429 52.6507 38.9659 52.7246 37.864 52.7246V60.7246ZM43.752 59.6366L48.1896 66.293C50.941 64.4587 53.48 61.2787 53.48 56.8206H45.48H37.48C37.48 55.9096 37.739 54.9717 38.2294 54.1724C38.6816 53.4355 39.1675 53.0781 39.3144 52.9802L43.752 59.6366ZM45.48 56.8206H53.48C53.48 53.2199 51.8036 50.0708 49.0096 48.0121L44.264 54.4526L39.5184 60.893C39.0638 60.5581 38.4932 59.9917 38.0595 59.147C37.6221 58.2953 37.48 57.4641 37.48 56.8206H45.48ZM44.264 54.4526L49.1755 48.1378C46.8741 46.3478 43.9284 45.5512 41.7689 45.0917L40.104 52.9166L38.4391 60.7414C39.1982 60.9029 39.6521 61.0423 39.877 61.1253C39.9825 61.1643 39.984 61.1713 39.91 61.1332C39.8412 61.0978 39.6327 60.9853 39.3525 60.7674L44.264 54.4526ZM40.104 52.9166L41.7757 45.0932L34.2877 43.4932L32.616 51.3166L30.9443 59.14L38.4323 60.74L40.104 52.9166ZM32.616 51.3166L34.2476 43.4847C31.0965 42.8282 29.7854 41.8811 29.293 41.3573L23.464 46.8366L17.635 52.3158C21.1532 56.0587 25.9435 58.0982 30.9844 59.1484L32.616 51.3166ZM23.464 46.8366L29.293 41.3573C28.8934 40.9321 28.456 40.2458 28.456 38.5806H20.456H12.456C12.456 43.6567 14.024 48.4743 17.635 52.3158L23.464 46.8366ZM20.456 38.5806H28.456C28.456 37.4687 28.6723 36.7085 28.9554 36.1423L21.8 32.5646L14.6446 28.9869C13.1357 32.0046 12.456 35.2551 12.456 38.5806H20.456ZM21.8 32.5646L28.922 36.2084C29.3111 35.4479 29.838 34.8056 30.5817 34.2336L25.704 27.8926L20.8263 21.5516C18.242 23.5395 16.1663 26.0119 14.678 28.9208L21.8 32.5646ZM25.704 27.8926L30.504 34.2926C31.3606 33.6501 32.4857 33.0655 33.9927 32.6189L31.72 24.9486L29.4473 17.2782C26.3463 18.197 23.4608 19.575 20.904 21.4926L25.704 27.8926ZM31.72 24.9486L34.0824 32.5918C35.5505 32.138 37.3422 31.8606 39.528 31.8606V23.8606V15.8606C35.9965 15.8606 32.5828 16.3085 29.3576 17.3053L31.72 24.9486ZM39.528 23.8606V31.8606C41.1262 31.8606 42.7737 32.0444 44.4814 32.4311L46.248 24.6286L48.0146 16.8261C45.1996 16.1887 42.3672 15.8606 39.528 15.8606V23.8606ZM46.248 24.6286L44.6512 32.4676C46.2683 32.797 47.3815 33.2505 48.1361 33.6955L52.2 26.8046L56.2639 19.9136C53.6905 18.396 50.8357 17.3988 47.8448 16.7896L46.248 24.6286ZM52.2 26.8046L48.4995 33.8973C48.3486 33.8185 48.0908 33.657 47.8071 33.3734C47.5168 33.083 47.2689 32.7337 47.0891 32.356L54.312 28.9166L61.5349 25.4771C60.2759 22.8333 58.2346 20.9296 55.9005 19.7119L52.2 26.8046ZM54.312 28.9166L47.0891 32.3561C47.0109 32.1919 46.9351 31.9769 46.889 31.7237C46.8429 31.47 46.8371 31.235 46.8541 31.0395L54.824 31.7326L62.7939 32.4256C63.0037 30.0137 62.5693 27.6494 61.5349 25.4771L54.312 28.9166ZM54.824 31.7326L46.8569 31.0083C46.8829 30.7214 46.9562 30.3812 47.1027 30.0241C47.2492 29.6669 47.4373 29.3703 47.6246 29.1429L53.8 34.2286L59.9754 39.3142C61.598 37.344 62.5608 34.991 62.7911 32.4568L54.824 31.7326ZM53.8 34.2286L47.4451 29.369C47.7342 28.991 48.0961 28.6576 48.5009 28.399C48.8972 28.1458 49.2476 28.0194 49.4766 27.9596L51.496 35.7006L53.5154 43.4415C56.0206 42.788 58.3963 41.3878 60.1549 39.0882L53.8 34.2286ZM51.496 35.7006L49.723 27.8995C50.3915 27.7476 50.8977 27.7859 51.138 27.8222C51.3661 27.8566 51.3971 27.8946 51.1978 27.811L48.104 35.1886L45.0102 42.5661C47.1569 43.4663 50.0834 44.2256 53.269 43.5016L51.496 35.7006ZM48.104 35.1886L51.3764 27.8885C49.4024 27.0036 47.307 26.4238 45.1606 26.0757L43.88 33.9726L42.5994 41.8694C43.6103 42.0333 44.331 42.2642 44.8316 42.4886L48.104 35.1886ZM43.88 33.9726L45.407 26.1196C43.4069 25.7308 41.4015 25.5246 39.4 25.5246V33.5246V41.5246C40.2998 41.5246 41.2811 41.6171 42.3531 41.8255L43.88 33.9726ZM39.4 33.5246V25.5246C37.2177 25.5246 34.9363 25.7843 32.7511 26.5407L35.368 34.1006L37.9849 41.6605C38.0184 41.6489 38.425 41.5246 39.4 41.5246V33.5246ZM35.368 34.1006L33.0153 26.4543C30.8777 27.112 28.6014 28.2953 26.7874 30.3685L32.808 35.6366L38.8286 40.9046C38.2092 41.6125 37.6396 41.7718 37.7207 41.7468L35.368 34.1006ZM32.808 35.6366L26.5991 30.5918C24.8625 32.7292 23.976 35.3085 23.976 38.0046H31.976H39.976C39.976 38.3954 39.913 38.8764 39.7317 39.3925C39.5497 39.9104 39.2901 40.3451 39.0169 40.6813L32.808 35.6366ZM31.976 38.0046H23.976C23.976 41.3941 25.479 44.2849 27.771 46.3073L33.064 40.3086L38.357 34.3099C38.6973 34.6102 39.1384 35.109 39.482 35.8365C39.8327 36.5792 39.976 37.3377 39.976 38.0046H31.976ZM33.064 40.3086L28.1525 46.6234C30.4539 48.4134 33.3996 49.2099 35.5591 49.6694L37.224 41.8446L38.8889 34.0197C38.1298 33.8582 37.6759 33.7189 37.451 33.6358C37.3455 33.5968 37.344 33.5898 37.418 33.6279C37.4868 33.6633 37.6953 33.7758 37.9755 33.9937L33.064 40.3086ZM37.224 41.8446L35.5386 49.665L42.9626 51.265L44.648 43.4446L46.3334 35.6241L38.9094 34.0241L37.224 41.8446ZM44.648 43.4446L42.9553 51.2634C46.2475 51.9762 47.7022 52.9485 48.2711 53.5174L53.928 47.8606L59.5849 42.2037C56.0578 38.6766 51.3258 36.7049 46.3407 35.6257L44.648 43.4446ZM53.928 47.8606L48.2711 53.5174C48.6128 53.8591 49 54.3866 49 55.8606H57H65C65 50.7638 63.3392 45.9581 59.5849 42.2037L53.928 47.8606ZM57 55.8606H49C49 56.9725 48.7837 57.7326 48.5006 58.2989L55.656 61.8766L62.8114 65.4543C64.3203 62.4365 65 59.186 65 55.8606H57ZM55.656 61.8766L48.5006 58.2989C48.1712 58.9576 47.6911 59.5645 46.9383 60.1436L51.816 66.4846L56.6937 72.8256C59.2689 70.8446 61.3488 68.3795 62.8114 65.4543L55.656 61.8766ZM51.816 66.4846L47.0424 60.0649C46.2659 60.6422 45.1572 61.2199 43.5654 61.683L45.8 69.3646L48.0346 77.0461C51.1361 76.1439 54.0381 74.8016 56.5896 72.9043L51.816 66.4846ZM45.8 69.3646L43.5654 61.683C42.0752 62.1165 40.2009 62.3886 37.864 62.3886V70.3886V78.3886C41.4151 78.3886 44.8314 77.978 48.0346 77.0461L45.8 69.3646ZM63.6795 68.7246L57.9084 74.2648L57.9649 74.3237L58.0226 74.3814L63.6795 68.7246ZM63.6795 25.5246L58.0226 19.8677L58.0226 19.8677L63.6795 25.5246ZM72.3835 25.5246L66.6076 31.0598L66.6665 31.1212L66.7266 31.1814L72.3835 25.5246ZM72.4475 68.7246L78.2234 74.2598L78.2798 74.201L78.3349 74.141L72.4475 68.7246ZM68.0315 70.2606V62.2606C67.8067 62.2606 67.9033 62.2286 68.1981 62.3326C68.5275 62.4489 68.9515 62.6828 69.3364 63.0677L63.6795 68.7246L58.0226 74.3814C60.9546 77.3134 64.6885 78.2606 68.0315 78.2606V70.2606ZM63.6795 68.7246L69.4506 63.1843C69.7983 63.5465 69.9996 63.9317 70.0951 64.21C70.1796 64.4566 70.1435 64.5062 70.1435 64.2446H62.1435H54.1435C54.1435 67.591 55.0657 71.3037 57.9084 74.2648L63.6795 68.7246ZM62.1435 64.2446H70.1435V30.0046H62.1435H54.1435V64.2446H62.1435ZM62.1435 30.0046H70.1435C70.1435 29.7 70.1853 29.7439 70.0951 30.0072C69.992 30.3078 69.7619 30.7559 69.3364 31.1814L63.6795 25.5246L58.0226 19.8677C55.0276 22.8628 54.1435 26.6944 54.1435 30.0046H62.1435ZM63.6795 25.5246L69.3364 31.1814C68.9515 31.5663 68.5275 31.8002 68.1981 31.9165C67.9033 32.0205 67.8067 31.9886 68.0315 31.9886V23.9886V15.9886C64.6885 15.9886 60.9546 16.9357 58.0226 19.8677L63.6795 25.5246ZM68.0315 23.9886V31.9886C68.3004 31.9886 68.2091 32.0267 67.8969 31.9165C67.5436 31.7918 67.0551 31.5267 66.6076 31.0598L72.3835 25.5246L78.1594 19.9893C75.1942 16.8952 71.3343 15.9886 68.0315 15.9886V23.9886ZM72.3835 25.5246L66.7266 31.1814C66.3011 30.7559 66.071 30.3078 65.9679 30.0072C65.8777 29.7439 65.9195 29.7 65.9195 30.0046H73.9195H81.9195C81.9195 26.6944 81.0354 22.8628 78.0404 19.8677L72.3835 25.5246ZM73.9195 30.0046H65.9195V64.2446H73.9195H81.9195V30.0046H73.9195ZM73.9195 64.2446H65.9195C65.9195 64.5372 65.8806 64.5222 65.9512 64.3073C66.0316 64.0627 66.2146 63.6836 66.5601 63.3081L72.4475 68.7246L78.3349 74.141C81.067 71.1714 81.9195 67.5049 81.9195 64.2446H73.9195ZM72.4475 68.7246L66.6716 63.1893C67.1397 62.7009 67.6412 62.4382 67.9793 62.3206C68.2751 62.2177 68.3399 62.2606 68.0315 62.2606V70.2606V78.2606C71.3161 78.2606 75.2274 77.3861 78.2234 74.2598L72.4475 68.7246ZM82.913 68.8526L77.1262 74.3764L77.1904 74.4437L77.2561 74.5094L82.913 68.8526ZM83.041 25.3966L88.4352 31.3044L88.5037 31.2419L88.5708 31.1777L83.041 25.3966ZM90.721 24.8846L86.1333 31.4384L86.3182 31.5679L86.5102 31.6867L90.721 24.8846ZM93.153 27.7006L86.1385 31.5472L86.1512 31.5704L86.164 31.5934L93.153 27.7006ZM106.913 52.4046V60.4046H120.526L113.902 48.5117L106.913 52.4046ZM104.673 52.4046L97.6763 48.5256L91.0906 60.4046H104.673V52.4046ZM118.369 27.7006L111.451 23.6835L111.411 23.7521L111.372 23.8216L118.369 27.7006ZM120.801 24.8846L125.161 31.5921L125.2 31.5668L125.239 31.541L120.801 24.8846ZM128.289 25.3966L122.502 30.9204L122.631 31.0549L122.765 31.1834L128.289 25.3966ZM128.353 68.8526L134.14 74.3764L134.14 74.3764L128.353 68.8526ZM120.417 68.8526L114.63 74.3764L114.694 74.4437L114.76 74.5094L120.417 68.8526ZM119.073 42.8686V34.8686H111.073V42.8686H119.073ZM120.417 42.8686L127.352 46.8563L134.245 34.8686H120.417V42.8686ZM110.113 60.7886L116.862 65.0836L116.959 64.932L117.048 64.7763L110.113 60.7886ZM108.193 62.9006L103.661 56.3082L103.56 56.3773L103.462 56.4493L108.193 62.9006ZM101.089 60.7886L94.1583 64.7842L94.1797 64.8214L94.2016 64.8584L101.089 60.7886ZM90.721 42.8046V34.8046H76.8746L83.7903 46.8002L90.721 42.8046ZM92.193 42.8046H100.193V34.8046H92.193V42.8046ZM90.849 68.8526L85.0622 63.3288L90.849 68.8526ZM86.881 70.2606V62.2606C86.7487 62.2606 86.9238 62.2412 87.2843 62.3691C87.6788 62.5091 88.1498 62.7756 88.5699 63.1957L82.913 68.8526L77.2561 74.5094C80.0908 77.3441 83.6867 78.2606 86.881 78.2606V70.2606ZM82.913 68.8526L88.6998 63.3288C89.1171 63.7659 89.361 64.2325 89.4822 64.5901C89.5924 64.9156 89.569 65.052 89.569 64.8846H81.569H73.569C73.569 67.9802 74.4069 71.5276 77.1262 74.3764L82.913 68.8526ZM81.569 64.8846H89.569V29.3646H81.569H73.569V64.8846H81.569ZM81.569 29.3646H89.569C89.569 29.2201 89.5911 29.429 89.4375 29.843C89.2677 30.3007 88.9434 30.8404 88.4352 31.3044L83.041 25.3966L77.6468 19.4887C74.523 22.3409 73.569 26.1163 73.569 29.3646H81.569ZM83.041 25.3966L88.5708 31.1777C88.1517 31.5785 87.7084 31.8078 87.3818 31.9183C87.0876 32.0179 86.9889 31.9886 87.201 31.9886V23.9886V15.9886C84.0269 15.9886 80.4083 16.8443 77.5112 19.6154L83.041 25.3966ZM87.201 23.9886V31.9886C87.4302 31.9886 87.4151 32.0131 87.2276 31.9653C87.0271 31.9143 86.6158 31.7761 86.1333 31.4384L90.721 24.8846L95.3087 18.3307C92.6426 16.4644 89.6527 15.9886 87.201 15.9886V23.9886ZM90.721 24.8846L86.5102 31.6867C86.1576 31.4684 85.9808 31.2733 85.9464 31.2335C85.9152 31.1974 85.9905 31.2773 86.1385 31.5472L93.153 27.7006L100.168 23.8539C99.0478 21.8121 97.4007 19.6108 94.9318 18.0824L90.721 24.8846ZM93.153 27.7006L86.164 31.5934L99.924 56.2974L106.913 52.4046L113.902 48.5117L100.142 23.8077L93.153 27.7006ZM106.913 52.4046V44.4046H104.673V52.4046V60.4046H106.913V52.4046ZM104.673 52.4046L111.67 56.2836L125.366 31.5796L118.369 27.7006L111.372 23.8216L97.6763 48.5256L104.673 52.4046ZM118.369 27.7006L125.287 31.7177C125.38 31.5589 125.456 31.4418 125.513 31.36C125.57 31.2778 125.603 31.239 125.608 31.2335C125.612 31.2279 125.582 31.2639 125.512 31.3265C125.442 31.3894 125.326 31.4846 125.161 31.5921L120.801 24.8846L116.441 18.177C114.14 19.6728 112.559 21.7753 111.451 23.6835L118.369 27.7006ZM120.801 24.8846L125.239 31.541C124.823 31.8183 124.476 31.9321 124.309 31.9737C124.155 32.0124 124.159 31.9886 124.385 31.9886V23.9886V15.9886C121.903 15.9886 118.991 16.4763 116.363 18.2282L120.801 24.8846ZM124.385 23.9886V31.9886C124.521 31.9886 124.323 32.009 123.927 31.8661C123.491 31.7089 122.966 31.4059 122.502 30.9204L128.289 25.3966L134.076 19.8728C131.236 16.8978 127.557 15.9886 124.385 15.9886V23.9886ZM128.289 25.3966L122.765 31.1834C122.256 30.6971 121.955 30.1569 121.806 29.7358C121.671 29.3561 121.697 29.1858 121.697 29.3646H129.697H137.697C137.697 26.2178 136.825 22.4849 133.813 19.6097L128.289 25.3966ZM129.697 29.3646H121.697V64.8846H129.697H137.697V29.3646H129.697ZM129.697 64.8846H121.697C121.697 65.052 121.674 64.9157 121.784 64.5901C121.905 64.2325 122.149 63.7659 122.566 63.3288L128.353 68.8526L134.14 74.3764C136.859 71.5276 137.697 67.9802 137.697 64.8846H129.697ZM128.353 68.8526L122.566 63.3288C123.052 62.8193 123.593 62.5186 124.014 62.3691C124.393 62.2344 124.564 62.2606 124.385 62.2606V70.2606V78.2606C127.532 78.2606 131.265 77.3884 134.14 74.3764L128.353 68.8526ZM124.385 70.2606V62.2606C124.253 62.2606 124.428 62.2412 124.788 62.3691C125.183 62.5091 125.654 62.7756 126.074 63.1957L120.417 68.8526L114.76 74.5094C117.595 77.3441 121.191 78.2606 124.385 78.2606V70.2606ZM120.417 68.8526L126.204 63.3288C126.621 63.7659 126.865 64.2325 126.986 64.5901C127.096 64.9156 127.073 65.052 127.073 64.8846H119.073H111.073C111.073 67.9802 111.911 71.5276 114.63 74.3764L120.417 68.8526ZM119.073 64.8846H127.073V42.8686H119.073H111.073V64.8846H119.073ZM119.073 42.8686V50.8686H120.417V42.8686V34.8686H119.073V42.8686ZM120.417 42.8686L113.482 38.8808L103.178 56.8008L110.113 60.7886L117.048 64.7763L127.352 46.8563L120.417 42.8686ZM110.113 60.7886L103.364 56.4936C103.27 56.6406 103.232 56.6759 103.265 56.6392C103.3 56.6013 103.426 56.4695 103.661 56.3082L108.193 62.9006L112.725 69.4929C114.542 68.2442 115.875 66.6355 116.862 65.0836L110.113 60.7886ZM108.193 62.9006L103.462 56.4493C104.046 56.0212 104.598 55.8055 104.984 55.7018C105.173 55.6511 105.321 55.6273 105.417 55.616C105.513 55.6046 105.566 55.6046 105.569 55.6046V63.6046V71.6046C107.721 71.6046 110.462 71.1575 112.924 69.3518L108.193 62.9006ZM105.569 63.6046V55.6046C105.658 55.6046 106.49 55.6294 107.477 56.3082L102.945 62.9006L98.4128 69.4929C100.766 71.1104 103.347 71.6046 105.569 71.6046V63.6046ZM102.945 62.9006L107.477 56.3082C107.746 56.4932 107.907 56.659 107.978 56.7397C108.047 56.8179 108.04 56.8257 107.976 56.7187L101.089 60.7886L94.2016 64.8584C95.1696 66.4965 96.5181 68.1903 98.4128 69.4929L102.945 62.9006ZM101.089 60.7886L108.02 56.7929L97.6517 38.8089L90.721 42.8046L83.7903 46.8002L94.1583 64.7842L101.089 60.7886ZM90.721 42.8046V50.8046H92.193V42.8046V34.8046H90.721V42.8046ZM92.193 42.8046H84.193V64.8846H92.193H100.193V42.8046H92.193ZM92.193 64.8846H84.193C84.193 65.052 84.1696 64.9156 84.2798 64.5901C84.401 64.2325 84.6449 63.7659 85.0622 63.3288L90.849 68.8526L96.6358 74.3764C99.3551 71.5276 100.193 67.9802 100.193 64.8846H92.193ZM90.849 68.8526L85.0622 63.3288C85.5485 62.8193 86.0887 62.5186 86.5097 62.3691C86.8895 62.2344 87.0598 62.2606 86.881 62.2606V70.2606V78.2606C90.0278 78.2606 93.7607 77.3884 96.6358 74.3764L90.849 68.8526ZM136.147 69.3646L131.498 75.8744L131.603 75.9494L131.71 76.021L136.147 69.3646ZM134.484 66.8046L126.627 68.3153L126.633 68.3444L126.639 68.3735L134.484 66.8046ZM135.06 63.0926L127.804 59.7221L127.766 59.8036L127.73 59.886L135.06 63.0926ZM150.995 28.7886L158.251 32.159L158.255 32.15L158.259 32.141L150.995 28.7886ZM153.812 25.1406L149.374 18.4842L149.316 18.5231L149.258 18.563L153.812 25.1406ZM161.492 25.1406L156.817 31.6328L156.877 31.676L156.938 31.7181L161.492 25.1406ZM164.372 28.7886L171.627 25.4181L171.596 25.3512L171.563 25.2848L164.372 28.7886ZM180.307 63.0926L173.052 66.4631L173.101 66.5674L173.152 66.6703L180.307 63.0926ZM181.012 66.8046L173.155 65.2938L173.127 65.4405L173.105 65.5881L181.012 66.8046ZM179.411 69.3646L174.974 62.7082L174.898 62.7586L174.824 62.8107L179.411 69.3646ZM172.243 69.1086L167.037 75.1826L167.107 75.2422L167.178 75.3002L172.243 69.1086ZM169.812 65.3966L177.174 62.2675L177.174 62.2662L169.812 65.3966ZM166.355 57.2686L171.066 50.8027L147.663 33.7517L158.993 60.3989L166.355 57.2686ZM170.836 60.5326V68.5326H195.402L175.546 54.0667L170.836 60.5326ZM144.467 60.5326L139.8 54.0351L119.618 68.5326H144.467V60.5326ZM149.012 57.2686L156.374 60.3989L167.557 34.0971L144.344 50.7711L149.012 57.2686ZM145.555 65.3966L152.851 68.6795L152.885 68.6036L152.918 68.5269L145.555 65.3966ZM143.188 69.1086L137.686 63.3009L143.188 69.1086ZM157.588 36.8526V28.8526H152.265L150.208 33.7624L157.588 36.8526ZM150.163 54.5806L143.253 58.6115L151.342 72.4777L157.543 57.6707L150.163 54.5806ZM148.372 51.5086V43.5086H134.443L141.461 55.5395L148.372 51.5086ZM166.995 51.5086L173.906 55.5395L180.924 43.5086H166.995V51.5086ZM165.204 54.5806L157.834 57.6933L164.056 72.4246L172.114 58.6115L165.204 54.5806ZM157.715 36.8526L165.085 33.7398L163.021 28.8526H157.715V36.8526ZM139.476 70.2606V62.2606C139.413 62.2606 139.515 62.2533 139.731 62.3116C139.959 62.373 140.263 62.4937 140.585 62.7082L136.147 69.3646L131.71 76.021C134.193 77.6762 136.937 78.2606 139.476 78.2606V70.2606ZM136.147 69.3646L140.797 62.8547C141.097 63.0685 141.456 63.4059 141.767 63.8847C142.079 64.365 142.25 64.8441 142.328 65.2356L134.484 66.8046L126.639 68.3735C127.256 71.4601 128.97 74.0692 131.498 75.8744L136.147 69.3646ZM134.484 66.8046L142.34 65.2938C142.516 66.2103 142.236 66.6487 142.389 66.2991L135.06 63.0926L127.73 59.886C126.689 62.2671 126.025 65.1801 126.627 68.3153L134.484 66.8046ZM135.06 63.0926L142.315 66.4631L158.251 32.159L150.995 28.7886L143.74 25.4181L127.804 59.7221L135.06 63.0926ZM150.995 28.7886L158.259 32.141C158.438 31.7532 158.568 31.5688 158.608 31.517C158.643 31.4715 158.573 31.5741 158.365 31.7181L153.812 25.1406L149.258 18.563C146.625 20.3856 144.892 22.9218 143.732 25.4361L150.995 28.7886ZM153.812 25.1406L158.249 31.797C158.17 31.8499 158.052 31.9092 157.916 31.9495C157.782 31.9889 157.704 31.9886 157.715 31.9886V23.9886V15.9886C154.765 15.9886 151.905 16.7969 149.374 18.4842L153.812 25.1406ZM157.715 23.9886V31.9886C157.73 31.9886 157.613 31.9895 157.413 31.9284C157.205 31.865 156.996 31.7615 156.817 31.6328L161.492 25.1406L166.166 18.6483C163.597 16.7985 160.661 15.9886 157.715 15.9886V23.9886ZM161.492 25.1406L156.938 31.7181C156.752 31.5893 156.705 31.51 156.764 31.5857C156.828 31.6664 156.979 31.8797 157.18 32.2923L164.372 28.7886L171.563 25.2848C170.365 22.825 168.626 20.3495 166.045 18.563L161.492 25.1406ZM164.372 28.7886L157.116 32.159L173.052 66.4631L180.307 63.0926L187.563 59.7221L171.627 25.4181L164.372 28.7886ZM180.307 63.0926L173.152 66.6703C173.322 67.0101 172.937 66.4292 173.155 65.2938L181.012 66.8046L188.868 68.3153C189.513 64.9613 188.658 61.9057 187.463 59.5149L180.307 63.0926ZM181.012 66.8046L173.105 65.5881C173.165 65.1932 173.327 64.6319 173.7 64.0366C174.076 63.434 174.545 62.9944 174.974 62.7082L179.411 69.3646L183.849 76.021C186.701 74.1194 188.423 71.2441 188.918 68.021L181.012 66.8046ZM179.411 69.3646L174.824 62.8107C175.182 62.5597 175.534 62.4114 175.814 62.3329C176.082 62.2579 176.233 62.2606 176.212 62.2606V70.2606V78.2606C178.753 78.2606 181.52 77.6539 183.999 75.9184L179.411 69.3646ZM176.212 70.2606V62.2606C175.611 62.2606 176.335 62.1197 177.309 62.9169L172.243 69.1086L167.178 75.3002C170.029 77.6334 173.398 78.2606 176.212 78.2606V70.2606ZM172.243 69.1086L177.45 63.0345C177.697 63.2467 177.747 63.3606 177.655 63.2204C177.566 63.0842 177.395 62.7879 177.174 62.2675L169.812 65.3966L162.449 68.5257C163.409 70.7846 164.821 73.2827 167.037 75.1826L172.243 69.1086ZM169.812 65.3966L177.174 62.2662L173.718 54.1382L166.355 57.2686L158.993 60.3989L162.449 68.5269L169.812 65.3966ZM166.355 57.2686L161.645 63.7345L166.125 66.9985L170.836 60.5326L175.546 54.0667L171.066 50.8027L166.355 57.2686ZM170.836 60.5326V52.5326H144.467V60.5326V68.5326H170.836V60.5326ZM144.467 60.5326L149.135 67.03L153.679 63.766L149.012 57.2686L144.344 50.7711L139.8 54.0351L144.467 60.5326ZM149.012 57.2686L141.649 54.1382L138.193 62.2662L145.555 65.3966L152.918 68.5269L156.374 60.3989L149.012 57.2686ZM145.555 65.3966L138.26 62.1137C137.994 62.7051 137.782 63.0839 137.643 63.302C137.497 63.5316 137.495 63.481 137.686 63.3009L143.188 69.1086L148.689 74.9162C150.6 73.1063 151.905 70.7807 152.851 68.6795L145.555 65.3966ZM143.188 69.1086L137.686 63.3009C138.302 62.7171 138.916 62.4451 139.28 62.3321C139.612 62.2292 139.72 62.2606 139.476 62.2606V70.2606V78.2606C142.2 78.2606 145.805 77.6487 148.689 74.9162L143.188 69.1086ZM157.588 36.8526L150.208 33.7624L142.784 51.4904L150.163 54.5806L157.543 57.6707L164.967 39.9427L157.588 36.8526ZM150.163 54.5806L157.074 50.5496L155.282 47.4776L148.372 51.5086L141.461 55.5395L143.253 58.6115L150.163 54.5806ZM148.372 51.5086V59.5086H166.995V51.5086V43.5086H148.372V51.5086ZM166.995 51.5086L160.085 47.4776L158.293 50.5496L165.204 54.5806L172.114 58.6115L173.906 55.5395L166.995 51.5086ZM165.204 54.5806L172.573 51.4678L165.085 33.7398L157.715 36.8526L150.346 39.9653L157.834 57.6933L165.204 54.5806ZM157.715 36.8526V28.8526H157.588V36.8526V44.8526H157.715V36.8526Z" fill="white" mask="url(#path-1-outside-1_210_4)"/>
</g>
<mask id="path-3-outside-2_210_4" maskUnits="userSpaceOnUse" x="18.0804" y="20.6659" width="165" height="51" fill="black">
<rect fill="white" x="18.0804" y="20.6659" width="165" height="51"/>
<path d="M38.9444 69.3699C37.2377 69.3699 35.4457 69.2419 33.5684 68.9859C31.7337 68.7725 29.9844 68.4312 28.3204 67.9619C26.6564 67.4925 25.1631 66.9379 23.8404 66.2979C22.6884 65.7432 21.8777 65.0179 21.4084 64.1219C20.9391 63.1832 20.7684 62.2019 20.8964 61.1779C21.0244 60.1539 21.3871 59.2579 21.9844 58.4899C22.5817 57.6792 23.3711 57.1459 24.3524 56.8899C25.3337 56.5912 26.4431 56.7192 27.6804 57.2739C29.3017 58.0419 31.1364 58.6392 33.1844 59.0659C35.2324 59.4925 37.1524 59.7059 38.9444 59.7059C41.7604 59.7059 43.7231 59.3432 44.8324 58.6179C45.9844 57.8499 46.5604 56.9112 46.5604 55.8019C46.5604 54.8205 46.1551 54.0312 45.3444 53.4339C44.5764 52.8365 43.1897 52.3245 41.1844 51.8979L33.6964 50.2979C29.6004 49.4445 26.5497 47.9512 24.5444 45.8179C22.5391 43.6845 21.5364 40.9325 21.5364 37.5619C21.5364 35.3432 21.9844 33.3379 22.8804 31.5459C23.8191 29.7112 25.1204 28.1539 26.7844 26.8739C28.4911 25.5939 30.4964 24.6125 32.8004 23.9299C35.1471 23.2045 37.7497 22.8419 40.6084 22.8419C42.8271 22.8419 45.0671 23.0979 47.3284 23.6099C49.6324 24.0792 51.6164 24.8045 53.2804 25.7859C54.2617 26.2979 54.9657 27.0019 55.3924 27.8979C55.8191 28.7939 55.9897 29.7325 55.9044 30.7139C55.8191 31.6525 55.4777 32.4845 54.8804 33.2099C54.3257 33.9352 53.5577 34.4259 52.5764 34.6819C51.6377 34.8952 50.5071 34.7245 49.1844 34.1699C47.9471 33.6152 46.5391 33.2099 44.9604 32.9539C43.4244 32.6552 41.9311 32.5059 40.4804 32.5059C38.9017 32.5059 37.5577 32.6979 36.4484 33.0819C35.3391 33.4232 34.4857 33.9352 33.8884 34.6179C33.3337 35.3005 33.0564 36.0899 33.0564 36.9859C33.0564 37.8819 33.4191 38.6499 34.1444 39.2899C34.9124 39.8872 36.2991 40.3992 38.3044 40.8259L45.7284 42.4259C49.8671 43.3219 52.9604 44.7939 55.0084 46.8419C57.0564 48.8899 58.0804 51.5565 58.0804 54.8419C58.0804 57.0605 57.6324 59.0659 56.7364 60.8579C55.8404 62.6499 54.5604 64.1859 52.8964 65.4659C51.2324 66.7032 49.2271 67.6632 46.8804 68.3459C44.5337 69.0285 41.8884 69.3699 38.9444 69.3699ZM68.4719 69.2419C66.5946 69.2419 65.1439 68.7299 64.1199 67.7059C63.0959 66.6392 62.5839 65.1459 62.5839 63.2259V28.9859C62.5839 27.0232 63.0959 25.5299 64.1199 24.5059C65.1439 23.4819 66.5946 22.9699 68.4719 22.9699C70.3919 22.9699 71.8426 23.4819 72.8239 24.5059C73.8479 25.5299 74.3599 27.0232 74.3599 28.9859V63.2259C74.3599 65.1459 73.8692 66.6392 72.8879 67.7059C71.9066 68.7299 70.4346 69.2419 68.4719 69.2419ZM86.6814 69.2419C84.9747 69.2419 83.6521 68.7725 82.7134 67.8339C81.8174 66.8952 81.3694 65.5725 81.3694 63.8659V28.3459C81.3694 26.5965 81.8601 25.2739 82.8414 24.3779C83.8227 23.4392 85.2094 22.9699 87.0014 22.9699C88.4947 22.9699 89.6681 23.2685 90.5214 23.8659C91.4174 24.4205 92.2281 25.3592 92.9534 26.6819L106.713 51.3859H104.473L118.169 26.6819C118.937 25.3592 119.748 24.4205 120.601 23.8659C121.497 23.2685 122.692 22.9699 124.185 22.9699C125.892 22.9699 127.193 23.4392 128.089 24.3779C129.028 25.2739 129.497 26.5965 129.497 28.3459V63.8659C129.497 65.5725 129.049 66.8952 128.153 67.8339C127.257 68.7725 125.935 69.2419 124.185 69.2419C122.479 69.2419 121.156 68.7725 120.217 67.8339C119.321 66.8952 118.873 65.5725 118.873 63.8659V41.8499H120.217L109.913 59.7699C109.316 60.7085 108.676 61.4125 107.993 61.8819C107.353 62.3512 106.479 62.5859 105.369 62.5859C104.303 62.5859 103.428 62.3512 102.745 61.8819C102.063 61.4125 101.444 60.7085 100.889 59.7699L90.5214 41.7859H91.9934V63.8659C91.9934 65.5725 91.5454 66.8952 90.6494 67.8339C89.7534 68.7725 88.4307 69.2419 86.6814 69.2419ZM138.636 69.2419C137.313 69.2419 136.204 68.9432 135.308 68.3459C134.412 67.7059 133.857 66.8525 133.644 65.7859C133.431 64.6765 133.623 63.4392 134.22 62.0739L150.156 27.7699C150.924 26.1059 151.863 24.8899 152.972 24.1219C154.124 23.3539 155.425 22.9699 156.876 22.9699C158.327 22.9699 159.585 23.3539 160.652 24.1219C161.761 24.8899 162.721 26.1059 163.532 27.7699L179.468 62.0739C180.151 63.4392 180.385 64.6765 180.172 65.7859C180.001 66.8952 179.468 67.7485 178.572 68.3459C177.719 68.9432 176.652 69.2419 175.372 69.2419C173.665 69.2419 172.343 68.8579 171.404 68.0899C170.508 67.3219 169.697 66.0845 168.972 64.3779L165.516 56.2499L169.996 59.5139H143.628L148.172 56.2499L144.716 64.3779C143.948 66.0845 143.159 67.3219 142.348 68.0899C141.537 68.8579 140.3 69.2419 138.636 69.2419ZM156.748 35.8339L149.324 53.5619L147.532 50.4899H166.156L164.364 53.5619L156.876 35.8339H156.748Z"/>
</mask>
<path d="M38.9444 69.3699C37.2377 69.3699 35.4457 69.2419 33.5684 68.9859C31.7337 68.7725 29.9844 68.4312 28.3204 67.9619C26.6564 67.4925 25.1631 66.9379 23.8404 66.2979C22.6884 65.7432 21.8777 65.0179 21.4084 64.1219C20.9391 63.1832 20.7684 62.2019 20.8964 61.1779C21.0244 60.1539 21.3871 59.2579 21.9844 58.4899C22.5817 57.6792 23.3711 57.1459 24.3524 56.8899C25.3337 56.5912 26.4431 56.7192 27.6804 57.2739C29.3017 58.0419 31.1364 58.6392 33.1844 59.0659C35.2324 59.4925 37.1524 59.7059 38.9444 59.7059C41.7604 59.7059 43.7231 59.3432 44.8324 58.6179C45.9844 57.8499 46.5604 56.9112 46.5604 55.8019C46.5604 54.8205 46.1551 54.0312 45.3444 53.4339C44.5764 52.8365 43.1897 52.3245 41.1844 51.8979L33.6964 50.2979C29.6004 49.4445 26.5497 47.9512 24.5444 45.8179C22.5391 43.6845 21.5364 40.9325 21.5364 37.5619C21.5364 35.3432 21.9844 33.3379 22.8804 31.5459C23.8191 29.7112 25.1204 28.1539 26.7844 26.8739C28.4911 25.5939 30.4964 24.6125 32.8004 23.9299C35.1471 23.2045 37.7497 22.8419 40.6084 22.8419C42.8271 22.8419 45.0671 23.0979 47.3284 23.6099C49.6324 24.0792 51.6164 24.8045 53.2804 25.7859C54.2617 26.2979 54.9657 27.0019 55.3924 27.8979C55.8191 28.7939 55.9897 29.7325 55.9044 30.7139C55.8191 31.6525 55.4777 32.4845 54.8804 33.2099C54.3257 33.9352 53.5577 34.4259 52.5764 34.6819C51.6377 34.8952 50.5071 34.7245 49.1844 34.1699C47.9471 33.6152 46.5391 33.2099 44.9604 32.9539C43.4244 32.6552 41.9311 32.5059 40.4804 32.5059C38.9017 32.5059 37.5577 32.6979 36.4484 33.0819C35.3391 33.4232 34.4857 33.9352 33.8884 34.6179C33.3337 35.3005 33.0564 36.0899 33.0564 36.9859C33.0564 37.8819 33.4191 38.6499 34.1444 39.2899C34.9124 39.8872 36.2991 40.3992 38.3044 40.8259L45.7284 42.4259C49.8671 43.3219 52.9604 44.7939 55.0084 46.8419C57.0564 48.8899 58.0804 51.5565 58.0804 54.8419C58.0804 57.0605 57.6324 59.0659 56.7364 60.8579C55.8404 62.6499 54.5604 64.1859 52.8964 65.4659C51.2324 66.7032 49.2271 67.6632 46.8804 68.3459C44.5337 69.0285 41.8884 69.3699 38.9444 69.3699ZM68.4719 69.2419C66.5946 69.2419 65.1439 68.7299 64.1199 67.7059C63.0959 66.6392 62.5839 65.1459 62.5839 63.2259V28.9859C62.5839 27.0232 63.0959 25.5299 64.1199 24.5059C65.1439 23.4819 66.5946 22.9699 68.4719 22.9699C70.3919 22.9699 71.8426 23.4819 72.8239 24.5059C73.8479 25.5299 74.3599 27.0232 74.3599 28.9859V63.2259C74.3599 65.1459 73.8692 66.6392 72.8879 67.7059C71.9066 68.7299 70.4346 69.2419 68.4719 69.2419ZM86.6814 69.2419C84.9747 69.2419 83.6521 68.7725 82.7134 67.8339C81.8174 66.8952 81.3694 65.5725 81.3694 63.8659V28.3459C81.3694 26.5965 81.8601 25.2739 82.8414 24.3779C83.8227 23.4392 85.2094 22.9699 87.0014 22.9699C88.4947 22.9699 89.6681 23.2685 90.5214 23.8659C91.4174 24.4205 92.2281 25.3592 92.9534 26.6819L106.713 51.3859H104.473L118.169 26.6819C118.937 25.3592 119.748 24.4205 120.601 23.8659C121.497 23.2685 122.692 22.9699 124.185 22.9699C125.892 22.9699 127.193 23.4392 128.089 24.3779C129.028 25.2739 129.497 26.5965 129.497 28.3459V63.8659C129.497 65.5725 129.049 66.8952 128.153 67.8339C127.257 68.7725 125.935 69.2419 124.185 69.2419C122.479 69.2419 121.156 68.7725 120.217 67.8339C119.321 66.8952 118.873 65.5725 118.873 63.8659V41.8499H120.217L109.913 59.7699C109.316 60.7085 108.676 61.4125 107.993 61.8819C107.353 62.3512 106.479 62.5859 105.369 62.5859C104.303 62.5859 103.428 62.3512 102.745 61.8819C102.063 61.4125 101.444 60.7085 100.889 59.7699L90.5214 41.7859H91.9934V63.8659C91.9934 65.5725 91.5454 66.8952 90.6494 67.8339C89.7534 68.7725 88.4307 69.2419 86.6814 69.2419ZM138.636 69.2419C137.313 69.2419 136.204 68.9432 135.308 68.3459C134.412 67.7059 133.857 66.8525 133.644 65.7859C133.431 64.6765 133.623 63.4392 134.22 62.0739L150.156 27.7699C150.924 26.1059 151.863 24.8899 152.972 24.1219C154.124 23.3539 155.425 22.9699 156.876 22.9699C158.327 22.9699 159.585 23.3539 160.652 24.1219C161.761 24.8899 162.721 26.1059 163.532 27.7699L179.468 62.0739C180.151 63.4392 180.385 64.6765 180.172 65.7859C180.001 66.8952 179.468 67.7485 178.572 68.3459C177.719 68.9432 176.652 69.2419 175.372 69.2419C173.665 69.2419 172.343 68.8579 171.404 68.0899C170.508 67.3219 169.697 66.0845 168.972 64.3779L165.516 56.2499L169.996 59.5139H143.628L148.172 56.2499L144.716 64.3779C143.948 66.0845 143.159 67.3219 142.348 68.0899C141.537 68.8579 140.3 69.2419 138.636 69.2419ZM156.748 35.8339L149.324 53.5619L147.532 50.4899H166.156L164.364 53.5619L156.876 35.8339H156.748Z" fill="url(#paint0_linear_210_4)"/>
<path d="M33.5684 68.9859L33.8386 67.0042L33.819 67.0015L33.7994 66.9992L33.5684 68.9859ZM23.8404 66.2979L24.7115 64.4975L24.708 64.4959L23.8404 66.2979ZM21.4084 64.1219L19.6195 65.0163L19.628 65.0332L19.6367 65.0499L21.4084 64.1219ZM20.8964 61.1779L22.881 61.4259L20.8964 61.1779ZM21.9844 58.4899L23.5631 59.7177L23.5791 59.6972L23.5945 59.6763L21.9844 58.4899ZM24.3524 56.8899L24.8572 58.8251L24.8962 58.8149L24.9347 58.8032L24.3524 56.8899ZM27.6804 57.2739L28.5366 55.4664L28.5176 55.4574L28.4985 55.4488L27.6804 57.2739ZM33.1844 59.0659L33.5923 57.1079L33.1844 59.0659ZM44.8324 58.6179L45.9269 60.2918L45.9344 60.2869L45.9418 60.282L44.8324 58.6179ZM45.3444 53.4339L44.1165 55.0126L44.1371 55.0285L44.158 55.044L45.3444 53.4339ZM41.1844 51.8979L40.7665 53.8537L40.7682 53.8541L41.1844 51.8979ZM33.6964 50.2979L34.1143 48.342L34.1043 48.3399L33.6964 50.2979ZM24.5444 45.8179L26.0017 44.448H26.0017L24.5444 45.8179ZM22.8804 31.5459L21.0999 30.6349L21.0957 30.6432L21.0915 30.6514L22.8804 31.5459ZM26.7844 26.8739L25.5844 25.2739L25.5746 25.2812L25.565 25.2886L26.7844 26.8739ZM32.8004 23.9299L33.3686 25.8475L33.3798 25.8441L33.391 25.8407L32.8004 23.9299ZM47.3284 23.6099L46.8867 25.5605L46.9079 25.5653L46.9292 25.5696L47.3284 23.6099ZM53.2804 25.7859L52.2644 27.5086L52.3092 27.535L52.3553 27.559L53.2804 25.7859ZM55.3924 27.8979L53.5867 28.7577L53.5867 28.7577L55.3924 27.8979ZM55.9044 30.7139L57.8962 30.8949L57.8969 30.8871L55.9044 30.7139ZM54.8804 33.2099L53.3365 31.9384L53.3136 31.9663L53.2917 31.995L54.8804 33.2099ZM52.5764 34.6819L53.0196 36.6321L53.0506 36.6251L53.0812 36.6171L52.5764 34.6819ZM49.1844 34.1699L48.3663 35.9949L48.3885 36.0048L48.4109 36.0142L49.1844 34.1699ZM44.9604 32.9539L44.5787 34.9171L44.6094 34.9231L44.6403 34.9281L44.9604 32.9539ZM36.4484 33.0819L37.0366 34.9934L37.0698 34.9832L37.1026 34.9718L36.4484 33.0819ZM33.8884 34.6179L32.3832 33.3009L32.3592 33.3283L32.3362 33.3567L33.8884 34.6179ZM34.1444 39.2899L32.8212 40.7895L32.8676 40.8305L32.9165 40.8686L34.1444 39.2899ZM38.3044 40.8259L38.7258 38.8707L38.7206 38.8696L38.3044 40.8259ZM45.7284 42.4259L46.1516 40.4711L46.1498 40.4708L45.7284 42.4259ZM56.7364 60.8579L58.5253 61.7523H58.5253L56.7364 60.8579ZM52.8964 65.4659L54.0898 67.0708L54.1029 67.0611L54.1158 67.0511L52.8964 65.4659ZM46.8804 68.3459L47.4391 70.2663L46.8804 68.3459ZM38.9444 69.3699V67.3699C37.3373 67.3699 35.636 67.2493 33.8386 67.0042L33.5684 68.9859L33.2982 70.9675C35.2554 71.2344 37.1381 71.3699 38.9444 71.3699V69.3699ZM33.5684 68.9859L33.7994 66.9992C32.0631 66.7973 30.4185 66.4756 28.8633 66.037L28.3204 67.9619L27.7775 69.8868C29.5503 70.3868 31.4044 70.7477 33.3374 70.9725L33.5684 68.9859ZM28.3204 67.9619L28.8633 66.037C27.293 65.5941 25.9121 65.0785 24.7115 64.4975L23.8404 66.2979L22.9693 68.0982C24.414 68.7972 26.0198 69.391 27.7775 69.8868L28.3204 67.9619ZM23.8404 66.2979L24.708 64.4959C23.8401 64.078 23.4025 63.6185 23.1801 63.1938L21.4084 64.1219L19.6367 65.0499C20.353 66.4173 21.5367 67.4084 22.9728 68.0999L23.8404 66.2979ZM21.4084 64.1219L23.1973 63.2274C22.9013 62.6356 22.8028 62.0511 22.881 61.4259L20.8964 61.1779L18.9118 60.9298C18.734 62.3526 18.9768 63.7308 19.6195 65.0163L21.4084 64.1219ZM20.8964 61.1779L22.881 61.4259C22.9671 60.7366 23.2003 60.1842 23.5631 59.7177L21.9844 58.4899L20.4057 57.262C19.5738 58.3315 19.0817 59.5712 18.9118 60.9298L20.8964 61.1779ZM21.9844 58.4899L23.5945 59.6763C23.918 59.2373 24.3158 58.9664 24.8572 58.8251L24.3524 56.8899L23.8476 54.9546C22.4264 55.3254 21.2455 56.1211 20.3743 57.3035L21.9844 58.4899ZM24.3524 56.8899L24.9347 58.8032C25.3224 58.6852 25.9217 58.6772 26.8623 59.0989L27.6804 57.2739L28.4985 55.4488C26.9645 54.7612 25.3451 54.4972 23.7701 54.9765L24.3524 56.8899ZM27.6804 57.2739L26.8242 59.0813C28.6098 59.9271 30.5986 60.5701 32.7765 61.0238L33.1844 59.0659L33.5923 57.1079C31.6742 56.7083 29.9937 56.1566 28.5366 55.4664L27.6804 57.2739ZM33.1844 59.0659L32.7765 61.0238C34.937 61.4739 36.9948 61.7059 38.9444 61.7059V59.7059V57.7059C37.31 57.7059 35.5278 57.5111 33.5923 57.1079L33.1844 59.0659ZM38.9444 59.7059V61.7059C41.7993 61.7059 44.2884 61.3631 45.9269 60.2918L44.8324 58.6179L43.7379 56.9439C43.1577 57.3233 41.7215 57.7059 38.9444 57.7059V59.7059ZM44.8324 58.6179L45.9418 60.282C47.4937 59.2474 48.5604 57.7484 48.5604 55.8019H46.5604H44.5604C44.5604 56.074 44.4751 56.4523 43.723 56.9538L44.8324 58.6179ZM46.5604 55.8019H48.5604C48.5604 54.1657 47.8373 52.7864 46.5308 51.8237L45.3444 53.4339L44.158 55.044C44.4728 55.276 44.5604 55.4753 44.5604 55.8019H46.5604ZM45.3444 53.4339L46.5723 51.8552C45.4209 50.9597 43.6445 50.3765 41.6006 49.9417L41.1844 51.8979L40.7682 53.8541C42.735 54.2725 43.7319 54.7134 44.1165 55.0126L45.3444 53.4339ZM41.1844 51.8979L41.6023 49.942L34.1143 48.342L33.6964 50.2979L33.2785 52.2537L40.7665 53.8537L41.1844 51.8979ZM33.6964 50.2979L34.1043 48.3399C30.2445 47.5358 27.6288 46.179 26.0017 44.448L24.5444 45.8179L23.0871 47.1877C25.4707 49.7234 28.9563 51.3533 33.2885 52.2558L33.6964 50.2979ZM24.5444 45.8179L26.0017 44.448C24.3977 42.7418 23.5364 40.5062 23.5364 37.5619H21.5364H19.5364C19.5364 41.3589 20.6804 44.6273 23.0871 47.1877L24.5444 45.8179ZM21.5364 37.5619H23.5364C23.5364 35.6199 23.9265 33.9258 24.6693 32.4403L22.8804 31.5459L21.0915 30.6514C20.0423 32.7499 19.5364 35.0665 19.5364 37.5619H21.5364ZM22.8804 31.5459L24.6609 32.4568C25.4622 30.8907 26.5699 29.5621 28.0038 28.4591L26.7844 26.8739L25.565 25.2886C23.6709 26.7456 22.176 28.5317 21.0999 30.6349L22.8804 31.5459ZM26.7844 26.8739L27.9844 28.4739C29.4785 27.3533 31.2638 26.4711 33.3686 25.8475L32.8004 23.9299L32.2322 22.0123C29.729 22.754 27.5036 23.8345 25.5844 25.2739L26.7844 26.8739ZM32.8004 23.9299L33.391 25.8407C35.518 25.1832 37.918 24.8419 40.6084 24.8419V22.8419V20.8419C37.5815 20.8419 34.7761 21.2258 32.2098 22.0191L32.8004 23.9299ZM40.6084 22.8419V24.8419C42.6719 24.8419 44.7638 25.0798 46.8867 25.5605L47.3284 23.6099L47.7701 21.6592C45.3703 21.1159 42.9822 20.8419 40.6084 20.8419V22.8419ZM47.3284 23.6099L46.9292 25.5696C49.0615 26.004 50.8278 26.6613 52.2644 27.5086L53.2804 25.7859L54.2964 24.0631C52.405 22.9477 50.2033 22.1544 47.7276 21.6501L47.3284 23.6099ZM53.2804 25.7859L52.3553 27.559C52.9984 27.8946 53.3681 28.2987 53.5867 28.7577L55.3924 27.8979L57.1981 27.038C56.5634 25.705 55.525 24.7011 54.2055 24.0127L53.2804 25.7859ZM55.3924 27.8979L53.5867 28.7577C53.8614 29.3347 53.9662 29.9169 53.9119 30.5406L55.9044 30.7139L57.8969 30.8871C58.0133 29.5481 57.7767 28.2531 57.1981 27.038L55.3924 27.8979ZM55.9044 30.7139L53.9126 30.5328C53.8635 31.0726 53.6776 31.5243 53.3365 31.9384L54.8804 33.2099L56.4243 34.4813C57.2779 33.4447 57.7746 32.2325 57.8962 30.8949L55.9044 30.7139ZM54.8804 33.2099L53.2917 31.995C53.038 32.3267 52.6719 32.59 52.0716 32.7466L52.5764 34.6819L53.0812 36.6171C54.4436 36.2617 55.6135 35.5437 56.4691 34.4248L54.8804 33.2099ZM52.5764 34.6819L52.1332 32.7316C51.7562 32.8173 51.0745 32.7938 49.9579 32.3255L49.1844 34.1699L48.4109 36.0142C49.9396 36.6553 51.5192 36.9731 53.0196 36.6321L52.5764 34.6819ZM49.1844 34.1699L50.0025 32.3448C48.581 31.7076 47.0012 31.2587 45.2805 30.9797L44.9604 32.9539L44.6403 34.9281C46.077 35.1611 47.3131 35.5228 48.3663 35.9949L49.1844 34.1699ZM44.9604 32.9539L45.3421 30.9906C43.6901 30.6694 42.0688 30.5059 40.4804 30.5059V32.5059V34.5059C41.7934 34.5059 43.1587 34.641 44.5787 34.9171L44.9604 32.9539ZM40.4804 32.5059V30.5059C38.7508 30.5059 37.1725 30.7148 35.7942 31.1919L36.4484 33.0819L37.1026 34.9718C37.943 34.6809 39.0526 34.5059 40.4804 34.5059V32.5059ZM36.4484 33.0819L35.8602 31.1703C34.4938 31.5907 33.2848 32.2706 32.3832 33.3009L33.8884 34.6179L35.3936 35.9349C35.6867 35.5998 36.1843 35.2557 37.0366 34.9934L36.4484 33.0819ZM33.8884 34.6179L32.3362 33.3567C31.486 34.403 31.0564 35.6398 31.0564 36.9859H33.0564H35.0564C35.0564 36.5399 35.1814 36.198 35.4406 35.879L33.8884 34.6179ZM33.0564 36.9859H31.0564C31.0564 38.5052 31.7042 39.8039 32.8212 40.7895L34.1444 39.2899L35.4676 37.7902C35.134 37.4958 35.0564 37.2585 35.0564 36.9859H33.0564ZM34.1444 39.2899L32.9165 40.8686C34.0679 41.7641 35.8443 42.3472 37.8882 42.7821L38.3044 40.8259L38.7206 38.8696C36.7538 38.4512 35.7569 38.0103 35.3723 37.7112L34.1444 39.2899ZM38.3044 40.8259L37.883 42.781L45.307 44.381L45.7284 42.4259L46.1498 40.4708L38.7258 38.8708L38.3044 40.8259ZM45.7284 42.4259L45.3052 44.3806C49.2323 45.2308 51.916 46.5779 53.5942 48.2561L55.0084 46.8419L56.4226 45.4277C54.0048 43.0099 50.5019 41.413 46.1516 40.4711L45.7284 42.4259ZM55.0084 46.8419L53.5942 48.2561C55.2156 49.8775 56.0804 52.0094 56.0804 54.8419H58.0804H60.0804C60.0804 51.1037 58.8972 47.9022 56.4226 45.4277L55.0084 46.8419ZM58.0804 54.8419H56.0804C56.0804 56.7838 55.6903 58.4779 54.9475 59.9634L56.7364 60.8579L58.5253 61.7523C59.5745 59.6539 60.0804 57.3372 60.0804 54.8419H58.0804ZM56.7364 60.8579L54.9475 59.9634C54.1932 61.4721 53.1132 62.7758 51.677 63.8806L52.8964 65.4659L54.1158 67.0511C56.0076 65.5959 57.4876 63.8276 58.5253 61.7523L56.7364 60.8579ZM52.8964 65.4659L51.703 63.8609C50.2609 64.9333 48.4797 65.7977 46.3217 66.4255L46.8804 68.3459L47.4391 70.2663C49.9744 69.5287 52.2039 68.4731 54.0898 67.0708L52.8964 65.4659ZM46.8804 68.3459L46.3217 66.4255C44.1892 67.0458 41.7366 67.3699 38.9444 67.3699V69.3699V71.3699C42.0402 71.3699 44.8783 71.0112 47.4391 70.2663L46.8804 68.3459ZM64.1199 67.7059L62.6771 69.0909L62.6913 69.1056L62.7057 69.1201L64.1199 67.7059ZM64.1199 24.5059L62.7057 23.0916H62.7057L64.1199 24.5059ZM72.8239 24.5059L71.3799 25.8897L71.3946 25.905L71.4097 25.9201L72.8239 24.5059ZM72.8879 67.7059L74.3319 69.0897L74.346 69.075L74.3598 69.06L72.8879 67.7059ZM68.4719 69.2419V67.2419C66.961 67.2419 66.0811 66.8387 65.5341 66.2916L64.1199 67.7059L62.7057 69.1201C64.2067 70.6211 66.2281 71.2419 68.4719 71.2419V69.2419ZM64.1199 67.7059L65.5627 66.3208C64.9934 65.7278 64.5839 64.7893 64.5839 63.2259H62.5839H60.5839C60.5839 65.5025 61.1984 67.5506 62.6771 69.0909L64.1199 67.7059ZM62.5839 63.2259H64.5839V28.9859H62.5839H60.5839V63.2259H62.5839ZM62.5839 28.9859H64.5839C64.5839 27.3601 65.0029 26.4513 65.5341 25.9201L64.1199 24.5059L62.7057 23.0916C61.1889 24.6084 60.5839 26.6863 60.5839 28.9859H62.5839ZM64.1199 24.5059L65.5341 25.9201C66.0811 25.3731 66.961 24.9699 68.4719 24.9699V22.9699V20.9699C66.2281 20.9699 64.2067 21.5906 62.7057 23.0916L64.1199 24.5059ZM68.4719 22.9699V24.9699C70.0462 24.9699 70.8946 25.3832 71.3799 25.8897L72.8239 24.5059L74.2679 23.122C72.7906 21.5805 70.7376 20.9699 68.4719 20.9699V22.9699ZM72.8239 24.5059L71.4097 25.9201C71.9409 26.4513 72.3599 27.3601 72.3599 28.9859H74.3599H76.3599C76.3599 26.6863 75.7549 24.6084 74.2381 23.0916L72.8239 24.5059ZM74.3599 28.9859H72.3599V63.2259H74.3599H76.3599V28.9859H74.3599ZM74.3599 63.2259H72.3599C72.3599 64.8108 71.9597 65.7608 71.416 66.3517L72.8879 67.7059L74.3598 69.06C75.7788 67.5176 76.3599 65.4809 76.3599 63.2259H74.3599ZM72.8879 67.7059L71.4439 66.3221C70.9663 66.8205 70.1041 67.2419 68.4719 67.2419V69.2419V71.2419C70.765 71.2419 72.8469 70.6392 74.3319 69.0897L72.8879 67.7059ZM82.7134 67.8339L81.2667 69.2148L81.2827 69.2316L81.2992 69.2481L82.7134 67.8339ZM82.8414 24.3779L84.1899 25.8548L84.2071 25.8392L84.2238 25.8231L82.8414 24.3779ZM90.5214 23.8659L89.3745 25.5043L89.4207 25.5367L89.4687 25.5664L90.5214 23.8659ZM92.9534 26.6819L91.1997 27.6435L91.2062 27.6551L92.9534 26.6819ZM106.713 51.3859V53.3859H110.117L108.461 50.4127L106.713 51.3859ZM104.473 51.3859L102.724 50.4161L101.078 53.3859H104.473V51.3859ZM118.169 26.6819L116.44 25.6776L116.43 25.6948L116.42 25.7121L118.169 26.6819ZM120.601 23.8659L121.691 25.5427L121.701 25.5364L121.711 25.53L120.601 23.8659ZM128.089 24.3779L126.643 25.7588L126.675 25.7925L126.708 25.8246L128.089 24.3779ZM128.153 67.8339L129.6 69.2148L128.153 67.8339ZM120.217 67.8339L118.771 69.2148L118.787 69.2316L118.803 69.2481L120.217 67.8339ZM118.873 41.8499V39.8499H116.873V41.8499H118.873ZM120.217 41.8499L121.951 42.8468L123.674 39.8499H120.217V41.8499ZM109.913 59.7699L111.601 60.8436L111.625 60.8057L111.647 60.7668L109.913 59.7699ZM107.993 61.8819L106.86 60.2338L106.835 60.251L106.811 60.2691L107.993 61.8819ZM100.889 59.7699L99.1567 60.7688L99.1621 60.7781L99.1675 60.7873L100.889 59.7699ZM90.5214 41.7859V39.7859H87.0598L88.7887 42.7848L90.5214 41.7859ZM91.9934 41.7859H93.9934V39.7859H91.9934V41.7859ZM90.6494 67.8339L89.2027 66.4529L90.6494 67.8339ZM86.6814 69.2419V67.2419C85.3466 67.2419 84.5923 66.8843 84.1276 66.4197L82.7134 67.8339L81.2992 69.2481C82.7118 70.6607 84.6028 71.2419 86.6814 71.2419V69.2419ZM82.7134 67.8339L84.1601 66.4529C83.7199 65.9918 83.3694 65.2253 83.3694 63.8659H81.3694H79.3694C79.3694 65.9198 79.9149 67.7986 81.2667 69.2148L82.7134 67.8339ZM81.3694 63.8659H83.3694V28.3459H81.3694H79.3694V63.8659H81.3694ZM81.3694 28.3459H83.3694C83.3694 26.9713 83.7442 26.2618 84.1899 25.8548L82.8414 24.3779L81.4929 22.9009C79.9759 24.2859 79.3694 26.2218 79.3694 28.3459H81.3694ZM82.8414 24.3779L84.2238 25.8231C84.7262 25.3426 85.5549 24.9699 87.0014 24.9699V22.9699V20.9699C84.8639 20.9699 82.9192 21.5358 81.459 22.9326L82.8414 24.3779ZM87.0014 22.9699V24.9699C88.2551 24.9699 88.9743 25.2242 89.3745 25.5043L90.5214 23.8659L91.6683 22.2274C90.3618 21.3128 88.7343 20.9699 87.0014 20.9699V22.9699ZM90.5214 23.8659L89.4687 25.5664C89.9715 25.8776 90.573 26.5007 91.1998 27.6435L92.9534 26.6819L94.707 25.7202C93.8831 24.2177 92.8633 22.9634 91.5741 22.1653L90.5214 23.8659ZM92.9534 26.6819L91.2062 27.6551L104.966 52.3591L106.713 51.3859L108.461 50.4127L94.7006 25.7087L92.9534 26.6819ZM106.713 51.3859V49.3859H104.473V51.3859V53.3859H106.713V51.3859ZM104.473 51.3859L106.223 52.3556L119.919 27.6516L118.169 26.6819L116.42 25.7121L102.724 50.4161L104.473 51.3859ZM118.169 26.6819L119.899 27.6861C120.582 26.5098 121.2 25.8621 121.691 25.5427L120.601 23.8659L119.511 22.189C118.296 22.9789 117.293 24.2085 116.44 25.6776L118.169 26.6819ZM120.601 23.8659L121.711 25.53C122.174 25.2213 122.939 24.9699 124.185 24.9699V22.9699V20.9699C122.445 20.9699 120.821 21.3158 119.492 22.2018L120.601 23.8659ZM124.185 22.9699V24.9699C125.526 24.9699 126.233 25.3292 126.643 25.7588L128.089 24.3779L129.536 22.9969C128.154 21.5492 126.258 20.9699 124.185 20.9699V22.9699ZM128.089 24.3779L126.708 25.8246C127.129 26.2258 127.497 26.9459 127.497 28.3459H129.497H131.497C131.497 26.2472 130.927 24.3219 129.47 22.9312L128.089 24.3779ZM129.497 28.3459H127.497V63.8659H129.497H131.497V28.3459H129.497ZM129.497 63.8659H127.497C127.497 65.2253 127.147 65.9918 126.707 66.4529L128.153 67.8339L129.6 69.2148C130.952 67.7986 131.497 65.9198 131.497 63.8659H129.497ZM128.153 67.8339L126.707 66.4529C126.305 66.8732 125.585 67.2419 124.185 67.2419V69.2419V71.2419C126.284 71.2419 128.209 70.6718 129.6 69.2148L128.153 67.8339ZM124.185 69.2419V67.2419C122.851 67.2419 122.096 66.8843 121.632 66.4196L120.217 67.8339L118.803 69.2481C120.216 70.6607 122.107 71.2419 124.185 71.2419V69.2419ZM120.217 67.8339L121.664 66.4529C121.224 65.9918 120.873 65.2253 120.873 63.8659H118.873H116.873C116.873 65.9198 117.419 67.7986 118.771 69.2148L120.217 67.8339ZM118.873 63.8659H120.873V41.8499H118.873H116.873V63.8659H118.873ZM118.873 41.8499V43.8499H120.217V41.8499V39.8499H118.873V41.8499ZM120.217 41.8499L118.484 40.8529L108.18 58.7729L109.913 59.7699L111.647 60.7668L121.951 42.8468L120.217 41.8499ZM109.913 59.7699L108.226 58.6961C107.726 59.4815 107.26 59.9593 106.86 60.2338L107.993 61.8819L109.126 63.5299C110.093 62.8658 110.906 61.9356 111.601 60.8436L109.913 59.7699ZM107.993 61.8819L106.811 60.2691C106.626 60.4043 106.218 60.5859 105.369 60.5859V62.5859V64.5859C106.739 64.5859 108.081 64.2981 109.176 63.4947L107.993 61.8819ZM105.369 62.5859V60.5859C104.592 60.5859 104.144 60.4161 103.878 60.2338L102.745 61.8819L101.612 63.5299C102.713 64.2863 104.014 64.5859 105.369 64.5859V62.5859ZM102.745 61.8819L103.878 60.2338C103.499 59.9728 103.063 59.5162 102.611 58.7524L100.889 59.7699L99.1675 60.7873C99.8255 61.9008 100.627 62.8523 101.612 63.5299L102.745 61.8819ZM100.889 59.7699L102.622 58.771L92.2541 40.7869L90.5214 41.7859L88.7887 42.7848L99.1567 60.7688L100.889 59.7699ZM90.5214 41.7859V43.7859H91.9934V41.7859V39.7859H90.5214V41.7859ZM91.9934 41.7859H89.9934V63.8659H91.9934H93.9934V41.7859H91.9934ZM91.9934 63.8659H89.9934C89.9934 65.2253 89.6429 65.9918 89.2027 66.4529L90.6494 67.8339L92.0961 69.2148C93.4479 67.7986 93.9934 65.9198 93.9934 63.8659H91.9934ZM90.6494 67.8339L89.2027 66.4529C88.8015 66.8732 88.0814 67.2419 86.6814 67.2419V69.2419V71.2419C88.7801 71.2419 90.7053 70.6718 92.0961 69.2148L90.6494 67.8339ZM135.308 68.3459L134.145 69.9733L134.172 69.9921L134.199 70.01L135.308 68.3459ZM133.644 65.7859L131.68 66.1636L131.681 66.1708L131.683 66.1781L133.644 65.7859ZM134.22 62.0739L132.406 61.2312L132.397 61.2516L132.388 61.2722L134.22 62.0739ZM150.156 27.7699L151.97 28.6125L151.972 28.608L150.156 27.7699ZM152.972 24.1219L151.863 22.4578L151.848 22.4675L151.833 22.4775L152.972 24.1219ZM160.652 24.1219L159.483 25.7449L159.498 25.7557L159.513 25.7662L160.652 24.1219ZM163.532 27.7699L165.346 26.9272L165.338 26.9105L165.33 26.8939L163.532 27.7699ZM179.468 62.0739L177.654 62.9165L177.666 62.9426L177.679 62.9683L179.468 62.0739ZM180.172 65.7859L178.208 65.4082L178.201 65.4448L178.195 65.4817L180.172 65.7859ZM178.572 68.3459L177.463 66.6818L177.444 66.6944L177.425 66.7074L178.572 68.3459ZM171.404 68.0899L170.102 69.6084L170.12 69.6233L170.137 69.6378L171.404 68.0899ZM168.972 64.3779L170.813 63.5956L170.812 63.5953L168.972 64.3779ZM165.516 56.2499L166.694 54.6334L160.843 50.3706L163.675 57.0325L165.516 56.2499ZM169.996 59.5139V61.5139H176.137L171.174 57.8974L169.996 59.5139ZM143.628 59.5139L142.461 57.8895L137.415 61.5139H143.628V59.5139ZM148.172 56.2499L150.012 57.0325L152.808 50.457L147.005 54.6255L148.172 56.2499ZM144.716 64.3779L146.54 65.1986L146.548 65.1796L146.556 65.1604L144.716 64.3779ZM142.348 68.0899L140.972 66.638L142.348 68.0899ZM156.748 35.8339V33.8339H155.417L154.903 35.0613L156.748 35.8339ZM149.324 53.5619L147.596 54.5696L149.618 58.0361L151.169 54.3344L149.324 53.5619ZM147.532 50.4899V48.4899H144.05L145.804 51.4976L147.532 50.4899ZM166.156 50.4899L167.883 51.4976L169.638 48.4899H166.156V50.4899ZM164.364 53.5619L162.522 54.3401L164.077 58.0229L166.091 54.5696L164.364 53.5619ZM156.876 35.8339L158.718 35.0557L158.202 33.8339H156.876V35.8339ZM138.636 69.2419V67.2419C137.617 67.2419 136.917 67.0146 136.417 66.6818L135.308 68.3459L134.199 70.01C135.491 70.8718 137.009 71.2419 138.636 71.2419V69.2419ZM135.308 68.3459L136.47 66.7184C135.982 66.3697 135.717 65.9553 135.605 65.3936L133.644 65.7859L131.683 66.1781C131.997 67.7498 132.842 69.042 134.145 69.9733L135.308 68.3459ZM133.644 65.7859L135.608 65.4082C135.492 64.8053 135.566 63.9869 136.052 62.8755L134.22 62.0739L132.388 61.2722C131.679 62.8915 131.369 64.5478 131.68 66.1636L133.644 65.7859ZM134.22 62.0739L136.034 62.9165L151.97 28.6125L150.156 27.7699L148.342 26.9272L132.406 61.2312L134.22 62.0739ZM150.156 27.7699L151.972 28.608C152.642 27.1566 153.382 26.2706 154.11 25.7662L152.972 24.1219L151.833 22.4775C150.343 23.5091 149.206 25.0552 148.34 26.9317L150.156 27.7699ZM152.972 24.1219L154.081 25.786C154.889 25.2478 155.8 24.9699 156.876 24.9699V22.9699V20.9699C155.05 20.9699 153.359 21.4599 151.863 22.4578L152.972 24.1219ZM156.876 22.9699V24.9699C157.953 24.9699 158.792 25.2474 159.483 25.7449L160.652 24.1219L161.821 22.4988C160.378 21.4603 158.7 20.9699 156.876 20.9699V22.9699ZM160.652 24.1219L159.513 25.7662C160.255 26.2796 161.02 27.1807 161.734 28.6458L163.532 27.7699L165.33 26.8939C164.422 25.031 163.267 23.5001 161.79 22.4775L160.652 24.1219ZM163.532 27.7699L161.718 28.6125L177.654 62.9165L179.468 62.0739L181.282 61.2312L165.346 26.9272L163.532 27.7699ZM179.468 62.0739L177.679 62.9683C178.234 64.0773 178.313 64.86 178.208 65.4082L180.172 65.7859L182.136 66.1636C182.457 64.493 182.068 62.8011 181.257 61.1794L179.468 62.0739ZM180.172 65.7859L178.195 65.4817C178.106 66.0626 177.869 66.4105 177.463 66.6818L178.572 68.3459L179.681 70.01C181.066 69.0866 181.897 67.7278 182.149 66.09L180.172 65.7859ZM178.572 68.3459L177.425 66.7074C176.978 67.0202 176.337 67.2419 175.372 67.2419V69.2419V71.2419C176.967 71.2419 178.459 70.8662 179.719 69.9843L178.572 68.3459ZM175.372 69.2419V67.2419C173.942 67.2419 173.131 66.9187 172.67 66.5419L171.404 68.0899L170.137 69.6378C171.554 70.7971 173.389 71.2419 175.372 71.2419V69.2419ZM171.404 68.0899L172.705 66.5714C172.14 66.0863 171.479 65.1642 170.813 63.5956L168.972 64.3779L167.131 65.1601C167.915 67.0049 168.876 68.5574 170.102 69.6084L171.404 68.0899ZM168.972 64.3779L170.812 63.5953L167.356 55.4673L165.516 56.2499L163.675 57.0325L167.131 65.1604L168.972 64.3779ZM165.516 56.2499L164.338 57.8663L168.818 61.1303L169.996 59.5139L171.174 57.8974L166.694 54.6334L165.516 56.2499ZM169.996 59.5139V57.5139H143.628V59.5139V61.5139H169.996V59.5139ZM143.628 59.5139L144.795 61.1382L149.339 57.8742L148.172 56.2499L147.005 54.6255L142.461 57.8895L143.628 59.5139ZM148.172 56.2499L146.331 55.4673L142.875 63.5953L144.716 64.3779L146.556 65.1604L150.012 57.0325L148.172 56.2499ZM144.716 64.3779L142.892 63.5571C142.168 65.1652 141.508 66.1304 140.972 66.638L142.348 68.0899L143.723 69.5418C144.809 68.5133 145.727 67.0039 146.54 65.1986L144.716 64.3779ZM142.348 68.0899L140.972 66.638C140.68 66.9148 140.035 67.2419 138.636 67.2419V69.2419V71.2419C140.565 71.2419 142.394 70.8009 143.723 69.5418L142.348 68.0899ZM156.748 35.8339L154.903 35.0613L147.479 52.7893L149.324 53.5619L151.169 54.3344L158.593 36.6064L156.748 35.8339ZM149.324 53.5619L151.051 52.5541L149.259 49.4821L147.532 50.4899L145.804 51.4976L147.596 54.5696L149.324 53.5619ZM147.532 50.4899V52.4899H166.156V50.4899V48.4899H147.532V50.4899ZM166.156 50.4899L164.428 49.4821L162.636 52.5541L164.364 53.5619L166.091 54.5696L167.883 51.4976L166.156 50.4899ZM164.364 53.5619L166.206 52.7837L158.718 35.0557L156.876 35.8339L155.034 36.6121L162.522 54.3401L164.364 53.5619ZM156.876 35.8339V33.8339H156.748V35.8339V37.8339H156.876V35.8339Z" fill="url(#paint1_linear_210_4)" mask="url(#path-3-outside-2_210_4)"/>
<mask id="path-5-outside-3_210_4" maskUnits="userSpaceOnUse" x="18.9549" y="17" width="165" height="51" fill="black">
<rect fill="white" x="18.9549" y="17" width="165" height="51"/>
<path d="M39.8189 65.704C38.1122 65.704 36.3202 65.576 34.4429 65.32C32.6082 65.1067 30.8589 64.7653 29.1949 64.296C27.5309 63.8267 26.0375 63.272 24.7149 62.632C23.5629 62.0773 22.7522 61.352 22.2829 60.456C21.8135 59.5173 21.6429 58.536 21.7709 57.512C21.8989 56.488 22.2615 55.592 22.8589 54.824C23.4562 54.0133 24.2455 53.48 25.2269 53.224C26.2082 52.9253 27.3175 53.0533 28.5549 53.608C30.1762 54.376 32.0109 54.9733 34.0589 55.4C36.1069 55.8267 38.0269 56.04 39.8189 56.04C42.6349 56.04 44.5975 55.6773 45.7069 54.952C46.8589 54.184 47.4349 53.2453 47.4349 52.136C47.4349 51.1547 47.0295 50.3653 46.2189 49.768C45.4509 49.1707 44.0642 48.6587 42.0589 48.232L34.5709 46.632C30.4749 45.7787 27.4242 44.2853 25.4189 42.152C23.4135 40.0187 22.4109 37.2667 22.4109 33.896C22.4109 31.6773 22.8589 29.672 23.7549 27.88C24.6935 26.0453 25.9949 24.488 27.6589 23.208C29.3655 21.928 31.3709 20.9467 33.6749 20.264C36.0215 19.5387 38.6242 19.176 41.4829 19.176C43.7015 19.176 45.9415 19.432 48.2029 19.944C50.5069 20.4133 52.4909 21.1387 54.1549 22.12C55.1362 22.632 55.8402 23.336 56.2669 24.232C56.6935 25.128 56.8642 26.0667 56.7789 27.048C56.6935 27.9867 56.3522 28.8187 55.7549 29.544C55.2002 30.2693 54.4322 30.76 53.4509 31.016C52.5122 31.2293 51.3815 31.0587 50.0589 30.504C48.8215 29.9493 47.4135 29.544 45.8349 29.288C44.2989 28.9893 42.8055 28.84 41.3549 28.84C39.7762 28.84 38.4322 29.032 37.3229 29.416C36.2135 29.7573 35.3602 30.2693 34.7629 30.952C34.2082 31.6347 33.9309 32.424 33.9309 33.32C33.9309 34.216 34.2935 34.984 35.0189 35.624C35.7869 36.2213 37.1735 36.7333 39.1789 37.16L46.6029 38.76C50.7415 39.656 53.8349 41.128 55.8829 43.176C57.9309 45.224 58.9549 47.8907 58.9549 51.176C58.9549 53.3947 58.5069 55.4 57.6109 57.192C56.7149 58.984 55.4349 60.52 53.7709 61.8C52.1069 63.0373 50.1015 63.9973 47.7549 64.68C45.4082 65.3627 42.7629 65.704 39.8189 65.704ZM69.3464 65.576C67.469 65.576 66.0184 65.064 64.9944 64.04C63.9704 62.9733 63.4584 61.48 63.4584 59.56V25.32C63.4584 23.3573 63.9704 21.864 64.9944 20.84C66.0184 19.816 67.469 19.304 69.3464 19.304C71.2664 19.304 72.717 19.816 73.6984 20.84C74.7224 21.864 75.2344 23.3573 75.2344 25.32V59.56C75.2344 61.48 74.7437 62.9733 73.7624 64.04C72.781 65.064 71.309 65.576 69.3464 65.576ZM87.5559 65.576C85.8492 65.576 84.5265 65.1067 83.5879 64.168C82.6919 63.2293 82.2439 61.9067 82.2439 60.2V24.68C82.2439 22.9307 82.7345 21.608 83.7159 20.712C84.6972 19.7733 86.0839 19.304 87.8759 19.304C89.3692 19.304 90.5425 19.6027 91.3959 20.2C92.2919 20.7547 93.1025 21.6933 93.8279 23.016L107.588 47.72H105.348L119.044 23.016C119.812 21.6933 120.623 20.7547 121.476 20.2C122.372 19.6027 123.567 19.304 125.06 19.304C126.767 19.304 128.068 19.7733 128.964 20.712C129.903 21.608 130.372 22.9307 130.372 24.68V60.2C130.372 61.9067 129.924 63.2293 129.028 64.168C128.132 65.1067 126.809 65.576 125.06 65.576C123.353 65.576 122.031 65.1067 121.092 64.168C120.196 63.2293 119.748 61.9067 119.748 60.2V38.184H121.092L110.788 56.104C110.191 57.0427 109.551 57.7467 108.868 58.216C108.228 58.6853 107.353 58.92 106.244 58.92C105.177 58.92 104.303 58.6853 103.62 58.216C102.937 57.7467 102.319 57.0427 101.764 56.104L91.3959 38.12H92.8679V60.2C92.8679 61.9067 92.4199 63.2293 91.5239 64.168C90.6279 65.1067 89.3052 65.576 87.5559 65.576ZM139.51 65.576C138.188 65.576 137.078 65.2773 136.182 64.68C135.286 64.04 134.732 63.1867 134.518 62.12C134.305 61.0107 134.497 59.7733 135.094 58.408L151.03 24.104C151.798 22.44 152.737 21.224 153.846 20.456C154.998 19.688 156.3 19.304 157.75 19.304C159.201 19.304 160.46 19.688 161.526 20.456C162.636 21.224 163.596 22.44 164.406 24.104L180.342 58.408C181.025 59.7733 181.26 61.0107 181.046 62.12C180.876 63.2293 180.342 64.0827 179.446 64.68C178.593 65.2773 177.526 65.576 176.246 65.576C174.54 65.576 173.217 65.192 172.278 64.424C171.382 63.656 170.572 62.4187 169.846 60.712L166.39 52.584L170.87 55.848H144.502L149.046 52.584L145.59 60.712C144.822 62.4187 144.033 63.656 143.222 64.424C142.412 65.192 141.174 65.576 139.51 65.576ZM157.622 32.168L150.198 49.896L148.406 46.824H167.03L165.238 49.896L157.75 32.168H157.622Z"/>
</mask>
<path d="M39.8189 65.704C38.1122 65.704 36.3202 65.576 34.4429 65.32C32.6082 65.1067 30.8589 64.7653 29.1949 64.296C27.5309 63.8267 26.0375 63.272 24.7149 62.632C23.5629 62.0773 22.7522 61.352 22.2829 60.456C21.8135 59.5173 21.6429 58.536 21.7709 57.512C21.8989 56.488 22.2615 55.592 22.8589 54.824C23.4562 54.0133 24.2455 53.48 25.2269 53.224C26.2082 52.9253 27.3175 53.0533 28.5549 53.608C30.1762 54.376 32.0109 54.9733 34.0589 55.4C36.1069 55.8267 38.0269 56.04 39.8189 56.04C42.6349 56.04 44.5975 55.6773 45.7069 54.952C46.8589 54.184 47.4349 53.2453 47.4349 52.136C47.4349 51.1547 47.0295 50.3653 46.2189 49.768C45.4509 49.1707 44.0642 48.6587 42.0589 48.232L34.5709 46.632C30.4749 45.7787 27.4242 44.2853 25.4189 42.152C23.4135 40.0187 22.4109 37.2667 22.4109 33.896C22.4109 31.6773 22.8589 29.672 23.7549 27.88C24.6935 26.0453 25.9949 24.488 27.6589 23.208C29.3655 21.928 31.3709 20.9467 33.6749 20.264C36.0215 19.5387 38.6242 19.176 41.4829 19.176C43.7015 19.176 45.9415 19.432 48.2029 19.944C50.5069 20.4133 52.4909 21.1387 54.1549 22.12C55.1362 22.632 55.8402 23.336 56.2669 24.232C56.6935 25.128 56.8642 26.0667 56.7789 27.048C56.6935 27.9867 56.3522 28.8187 55.7549 29.544C55.2002 30.2693 54.4322 30.76 53.4509 31.016C52.5122 31.2293 51.3815 31.0587 50.0589 30.504C48.8215 29.9493 47.4135 29.544 45.8349 29.288C44.2989 28.9893 42.8055 28.84 41.3549 28.84C39.7762 28.84 38.4322 29.032 37.3229 29.416C36.2135 29.7573 35.3602 30.2693 34.7629 30.952C34.2082 31.6347 33.9309 32.424 33.9309 33.32C33.9309 34.216 34.2935 34.984 35.0189 35.624C35.7869 36.2213 37.1735 36.7333 39.1789 37.16L46.6029 38.76C50.7415 39.656 53.8349 41.128 55.8829 43.176C57.9309 45.224 58.9549 47.8907 58.9549 51.176C58.9549 53.3947 58.5069 55.4 57.6109 57.192C56.7149 58.984 55.4349 60.52 53.7709 61.8C52.1069 63.0373 50.1015 63.9973 47.7549 64.68C45.4082 65.3627 42.7629 65.704 39.8189 65.704ZM69.3464 65.576C67.469 65.576 66.0184 65.064 64.9944 64.04C63.9704 62.9733 63.4584 61.48 63.4584 59.56V25.32C63.4584 23.3573 63.9704 21.864 64.9944 20.84C66.0184 19.816 67.469 19.304 69.3464 19.304C71.2664 19.304 72.717 19.816 73.6984 20.84C74.7224 21.864 75.2344 23.3573 75.2344 25.32V59.56C75.2344 61.48 74.7437 62.9733 73.7624 64.04C72.781 65.064 71.309 65.576 69.3464 65.576ZM87.5559 65.576C85.8492 65.576 84.5265 65.1067 83.5879 64.168C82.6919 63.2293 82.2439 61.9067 82.2439 60.2V24.68C82.2439 22.9307 82.7345 21.608 83.7159 20.712C84.6972 19.7733 86.0839 19.304 87.8759 19.304C89.3692 19.304 90.5425 19.6027 91.3959 20.2C92.2919 20.7547 93.1025 21.6933 93.8279 23.016L107.588 47.72H105.348L119.044 23.016C119.812 21.6933 120.623 20.7547 121.476 20.2C122.372 19.6027 123.567 19.304 125.06 19.304C126.767 19.304 128.068 19.7733 128.964 20.712C129.903 21.608 130.372 22.9307 130.372 24.68V60.2C130.372 61.9067 129.924 63.2293 129.028 64.168C128.132 65.1067 126.809 65.576 125.06 65.576C123.353 65.576 122.031 65.1067 121.092 64.168C120.196 63.2293 119.748 61.9067 119.748 60.2V38.184H121.092L110.788 56.104C110.191 57.0427 109.551 57.7467 108.868 58.216C108.228 58.6853 107.353 58.92 106.244 58.92C105.177 58.92 104.303 58.6853 103.62 58.216C102.937 57.7467 102.319 57.0427 101.764 56.104L91.3959 38.12H92.8679V60.2C92.8679 61.9067 92.4199 63.2293 91.5239 64.168C90.6279 65.1067 89.3052 65.576 87.5559 65.576ZM139.51 65.576C138.188 65.576 137.078 65.2773 136.182 64.68C135.286 64.04 134.732 63.1867 134.518 62.12C134.305 61.0107 134.497 59.7733 135.094 58.408L151.03 24.104C151.798 22.44 152.737 21.224 153.846 20.456C154.998 19.688 156.3 19.304 157.75 19.304C159.201 19.304 160.46 19.688 161.526 20.456C162.636 21.224 163.596 22.44 164.406 24.104L180.342 58.408C181.025 59.7733 181.26 61.0107 181.046 62.12C180.876 63.2293 180.342 64.0827 179.446 64.68C178.593 65.2773 177.526 65.576 176.246 65.576C174.54 65.576 173.217 65.192 172.278 64.424C171.382 63.656 170.572 62.4187 169.846 60.712L166.39 52.584L170.87 55.848H144.502L149.046 52.584L145.59 60.712C144.822 62.4187 144.033 63.656 143.222 64.424C142.412 65.192 141.174 65.576 139.51 65.576ZM157.622 32.168L150.198 49.896L148.406 46.824H167.03L165.238 49.896L157.75 32.168H157.622Z" fill="url(#paint2_linear_210_4)"/>
<path d="M34.4429 65.32L34.7131 63.3383L34.6935 63.3357L34.6739 63.3334L34.4429 65.32ZM24.7149 62.632L25.586 60.8317L25.5825 60.83L24.7149 62.632ZM22.2829 60.456L20.494 61.3504L20.5025 61.3673L20.5112 61.384L22.2829 60.456ZM21.7709 57.512L23.7554 57.7601L21.7709 57.512ZM22.8589 54.824L24.4376 56.0519L24.4536 56.0313L24.469 56.0104L22.8589 54.824ZM25.2269 53.224L25.7317 55.1592L25.7707 55.1491L25.8092 55.1373L25.2269 53.224ZM28.5549 53.608L29.4111 51.8005L29.3921 51.7916L29.373 51.783L28.5549 53.608ZM34.0589 55.4L34.4668 53.442L34.0589 55.4ZM45.7069 54.952L46.8014 56.6259L46.8089 56.6211L46.8163 56.6161L45.7069 54.952ZM46.2189 49.768L44.991 51.3467L45.0115 51.3627L45.0325 51.3781L46.2189 49.768ZM42.0589 48.232L41.641 50.1878L41.6427 50.1882L42.0589 48.232ZM34.5709 46.632L34.9888 44.6761L34.9788 44.674L34.5709 46.632ZM25.4189 42.152L26.8761 40.7822H26.8761L25.4189 42.152ZM23.7549 27.88L21.9744 26.969L21.9702 26.9773L21.966 26.9856L23.7549 27.88ZM27.6589 23.208L26.4589 21.608L26.4491 21.6153L26.4395 21.6227L27.6589 23.208ZM33.6749 20.264L34.2431 22.1816L34.2543 22.1783L34.2655 22.1748L33.6749 20.264ZM48.2029 19.944L47.7612 21.8946L47.7824 21.8994L47.8037 21.9037L48.2029 19.944ZM54.1549 22.12L53.1389 23.8427L53.1837 23.8691L53.2298 23.8932L54.1549 22.12ZM56.2669 24.232L54.4612 25.0919L54.4612 25.0919L56.2669 24.232ZM56.7789 27.048L58.7707 27.2291L58.7714 27.2213L56.7789 27.048ZM55.7549 29.544L54.211 28.2726L54.1881 28.3004L54.1662 28.3291L55.7549 29.544ZM53.4509 31.016L53.8941 32.9663L53.925 32.9592L53.9557 32.9512L53.4509 31.016ZM50.0589 30.504L49.2408 32.329L49.263 32.339L49.2854 32.3484L50.0589 30.504ZM45.8349 29.288L45.4531 31.2512L45.4839 31.2572L45.5147 31.2622L45.8349 29.288ZM37.3229 29.416L37.9111 31.3276L37.9443 31.3173L37.9771 31.306L37.3229 29.416ZM34.7629 30.952L33.2577 29.635L33.2337 29.6625L33.2107 29.6908L34.7629 30.952ZM35.0189 35.624L33.6956 37.1237L33.7421 37.1647L33.791 37.2027L35.0189 35.624ZM39.1789 37.16L39.6002 35.2049L39.5951 35.2038L39.1789 37.16ZM46.6029 38.76L47.0261 36.8053L47.0242 36.8049L46.6029 38.76ZM57.6109 57.192L59.3997 58.0864H59.3997L57.6109 57.192ZM53.7709 61.8L54.9643 63.4049L54.9774 63.3952L54.9903 63.3852L53.7709 61.8ZM47.7549 64.68L48.3135 66.6004L47.7549 64.68ZM39.8189 65.704V63.704C38.2118 63.704 36.5105 63.5834 34.7131 63.3383L34.4429 65.32L34.1727 67.3017C36.1299 67.5686 38.0126 67.704 39.8189 67.704V65.704ZM34.4429 65.32L34.6739 63.3334C32.9375 63.1315 31.293 62.8097 29.7378 62.3711L29.1949 64.296L28.652 66.2209C30.4248 66.7209 32.2789 67.0818 34.2119 67.3066L34.4429 65.32ZM29.1949 64.296L29.7378 62.3711C28.1675 61.9282 26.7866 61.4126 25.586 60.8317L24.7149 62.632L23.8438 64.4323C25.2885 65.1314 26.8943 65.7251 28.652 66.2209L29.1949 64.296ZM24.7149 62.632L25.5825 60.83C24.7146 60.4121 24.277 59.9526 24.0545 59.528L22.2829 60.456L20.5112 61.384C21.2275 62.7514 22.4112 63.7425 23.8472 64.434L24.7149 62.632ZM22.2829 60.456L24.0717 59.5616C23.7758 58.9697 23.6773 58.3853 23.7554 57.7601L21.7709 57.512L19.7863 57.2639C19.6085 58.6867 19.8513 60.065 20.494 61.3504L22.2829 60.456ZM21.7709 57.512L23.7554 57.7601C23.8416 57.0707 24.0748 56.5183 24.4376 56.0519L22.8589 54.824L21.2802 53.5961C20.4483 54.6657 19.9562 55.9053 19.7863 57.2639L21.7709 57.512ZM22.8589 54.824L24.469 56.0104C24.7924 55.5714 25.1902 55.3005 25.7317 55.1592L25.2269 53.224L24.722 51.2888C23.3008 51.6595 22.12 52.4552 21.2488 53.6376L22.8589 54.824ZM25.2269 53.224L25.8092 55.1373C26.1969 55.0194 26.7962 55.0114 27.7368 55.433L28.5549 53.608L29.373 51.783C27.8389 51.0953 26.2196 50.8313 24.6446 51.3106L25.2269 53.224ZM28.5549 53.608L27.6987 55.4155C29.4843 56.2613 31.473 56.9042 33.651 57.358L34.0589 55.4L34.4668 53.442C32.5487 53.0424 30.8681 52.4907 29.4111 51.8005L28.5549 53.608ZM34.0589 55.4L33.651 57.358C35.8114 57.8081 37.8693 58.04 39.8189 58.04V56.04V54.04C38.1844 54.04 36.4023 53.8453 34.4668 53.442L34.0589 55.4ZM39.8189 56.04V58.04C42.6738 58.04 45.1629 57.6972 46.8014 56.6259L45.7069 54.952L44.6124 53.2781C44.0322 53.6574 42.596 54.04 39.8189 54.04V56.04ZM45.7069 54.952L46.8163 56.6161C48.3681 55.5815 49.4349 54.0825 49.4349 52.136H47.4349H45.4349C45.4349 52.4081 45.3496 52.7865 44.5975 53.2879L45.7069 54.952ZM47.4349 52.136H49.4349C49.4349 50.4998 48.7118 49.1206 47.4053 48.1579L46.2189 49.768L45.0325 51.3781C45.3473 51.6101 45.4349 51.8095 45.4349 52.136H47.4349ZM46.2189 49.768L47.4468 48.1893C46.2954 47.2938 44.519 46.7107 42.4751 46.2758L42.0589 48.232L41.6427 50.1882C43.6094 50.6067 44.6063 51.0475 44.991 51.3467L46.2189 49.768ZM42.0589 48.232L42.4768 46.2761L34.9888 44.6762L34.5709 46.632L34.153 48.5878L41.641 50.1878L42.0589 48.232ZM34.5709 46.632L34.9788 44.674C31.119 43.8699 28.5032 42.5131 26.8761 40.7822L25.4189 42.152L23.9616 43.5218C26.3452 46.0575 29.8308 47.6874 34.163 48.59L34.5709 46.632ZM25.4189 42.152L26.8761 40.7822C25.2722 39.0759 24.4109 36.8403 24.4109 33.896H22.4109H20.4109C20.4109 37.693 21.5549 40.9614 23.9616 43.5218L25.4189 42.152ZM22.4109 33.896H24.4109C24.4109 31.954 24.801 30.26 25.5437 28.7744L23.7549 27.88L21.966 26.9856C20.9168 29.084 20.4109 31.4006 20.4109 33.896H22.4109ZM23.7549 27.88L25.5354 28.7909C26.3366 27.2248 27.4444 25.8963 28.8783 24.7932L27.6589 23.208L26.4395 21.6227C24.5454 23.0797 23.0505 24.8658 21.9744 26.969L23.7549 27.88ZM27.6589 23.208L28.8589 24.808C30.353 23.6874 32.1383 22.8052 34.2431 22.1816L33.6749 20.264L33.1067 18.3464C30.6035 19.0881 28.3781 20.1686 26.4589 21.608L27.6589 23.208ZM33.6749 20.264L34.2655 22.1748C36.3925 21.5174 38.7924 21.176 41.4829 21.176V19.176V17.176C38.456 17.176 35.6506 17.56 33.0843 18.3532L33.6749 20.264ZM41.4829 19.176V21.176C43.5464 21.176 45.6383 21.414 47.7612 21.8946L48.2029 19.944L48.6445 17.9934C46.2448 17.45 43.8567 17.176 41.4829 17.176V19.176ZM48.2029 19.944L47.8037 21.9037C49.9359 22.3381 51.7023 22.9955 53.1389 23.8427L54.1549 22.12L55.1709 20.3973C53.2795 19.2819 51.0778 18.4886 48.6021 17.9842L48.2029 19.944ZM54.1549 22.12L53.2298 23.8932C53.8729 24.2287 54.2426 24.6328 54.4612 25.0919L56.2669 24.232L58.0726 23.3721C57.4379 22.0392 56.3995 21.0353 55.08 20.3468L54.1549 22.12ZM56.2669 24.232L54.4612 25.0919C54.7359 25.6688 54.8406 26.251 54.7864 26.8747L56.7789 27.048L58.7714 27.2213C58.8878 25.8823 58.6512 24.5872 58.0726 23.3721L56.2669 24.232ZM56.7789 27.048L54.7871 26.8669C54.738 27.4067 54.5521 27.8585 54.211 28.2726L55.7549 29.544L57.2987 30.8154C58.1524 29.7789 58.6491 28.5666 58.7707 27.2291L56.7789 27.048ZM55.7549 29.544L54.1662 28.3291C53.9125 28.6608 53.5464 28.9241 52.946 29.0808L53.4509 31.016L53.9557 32.9512C55.318 32.5959 56.488 31.8778 57.3436 30.7589L55.7549 29.544ZM53.4509 31.016L53.0076 29.0657C52.6307 29.1514 51.949 29.1279 50.8323 28.6596L50.0589 30.504L49.2854 32.3484C50.8141 32.9894 52.3937 33.3073 53.8941 32.9663L53.4509 31.016ZM50.0589 30.504L50.877 28.679C49.4555 28.0417 47.8756 27.5928 46.155 27.3138L45.8349 29.288L45.5147 31.2622C46.9515 31.4952 48.1876 31.8569 49.2408 32.329L50.0589 30.504ZM45.8349 29.288L46.2166 27.3248C44.5646 27.0035 42.9433 26.84 41.3549 26.84V28.84V30.84C42.6678 30.84 44.0332 30.9751 45.4531 31.2512L45.8349 29.288ZM41.3549 28.84V26.84C39.6253 26.84 38.047 27.0489 36.6687 27.526L37.3229 29.416L37.9771 31.306C38.8175 31.0151 39.9271 30.84 41.3549 30.84V28.84ZM37.3229 29.416L36.7347 27.5044C35.3683 27.9249 34.1592 28.6047 33.2577 29.635L34.7629 30.952L36.268 32.269C36.5612 31.934 37.0588 31.5898 37.9111 31.3276L37.3229 29.416ZM34.7629 30.952L33.2107 29.6908C32.3605 30.7372 31.9309 31.974 31.9309 33.32H33.9309H35.9309C35.9309 32.874 36.0559 32.5322 36.3151 32.2132L34.7629 30.952ZM33.9309 33.32H31.9309C31.9309 34.8394 32.5786 36.1381 33.6956 37.1237L35.0189 35.624L36.3421 34.1243C36.0085 33.8299 35.9309 33.5926 35.9309 33.32H33.9309ZM35.0189 35.624L33.791 37.2027C34.9424 38.0982 36.7188 38.6813 38.7627 39.1162L39.1789 37.16L39.5951 35.2038C37.6283 34.7853 36.6314 34.3445 36.2468 34.0453L35.0189 35.624ZM39.1789 37.16L38.7575 39.1151L46.1815 40.7151L46.6029 38.76L47.0242 36.8049L39.6002 35.2049L39.1789 37.16ZM46.6029 38.76L46.1797 40.7147C50.1068 41.5649 52.7904 42.912 54.4687 44.5902L55.8829 43.176L57.2971 41.7618C54.8793 39.344 51.3763 37.7471 47.0261 36.8053L46.6029 38.76ZM55.8829 43.176L54.4687 44.5902C56.0901 46.2116 56.9549 48.3435 56.9549 51.176H58.9549H60.9549C60.9549 47.4378 59.7717 44.2364 57.2971 41.7618L55.8829 43.176ZM58.9549 51.176H56.9549C56.9549 53.118 56.5648 54.812 55.822 56.2976L57.6109 57.192L59.3997 58.0864C60.449 55.988 60.9549 53.6714 60.9549 51.176H58.9549ZM57.6109 57.192L55.822 56.2976C55.0677 57.8063 53.9877 59.11 52.5515 60.2148L53.7709 61.8L54.9903 63.3852C56.8821 61.93 58.3621 60.1617 59.3997 58.0864L57.6109 57.192ZM53.7709 61.8L52.5775 60.1951C51.1354 61.2674 49.3542 62.1318 47.1962 62.7596L47.7549 64.68L48.3135 66.6004C50.8489 65.8628 53.0784 64.8073 54.9643 63.4049L53.7709 61.8ZM47.7549 64.68L47.1962 62.7596C45.0637 63.38 42.6111 63.704 39.8189 63.704V65.704V67.704C42.9147 67.704 45.7527 67.3454 48.3135 66.6004L47.7549 64.68ZM64.9944 64.04L63.5516 65.4251L63.5657 65.4398L63.5802 65.4542L64.9944 64.04ZM64.9944 20.84L63.5802 19.4258H63.5802L64.9944 20.84ZM73.6984 20.84L72.2544 22.2238L72.2691 22.2392L72.2842 22.2542L73.6984 20.84ZM73.7624 64.04L75.2064 65.4238L75.2205 65.4091L75.2342 65.3941L73.7624 64.04ZM69.3464 65.576V63.576C67.8355 63.576 66.9556 63.1728 66.4086 62.6258L64.9944 64.04L63.5802 65.4542C65.0812 66.9552 67.1026 67.576 69.3464 67.576V65.576ZM64.9944 64.04L66.4372 62.6549C65.8678 62.0619 65.4584 61.1234 65.4584 59.56H63.4584H61.4584C61.4584 61.8366 62.0729 63.8848 63.5516 65.4251L64.9944 64.04ZM63.4584 59.56H65.4584V25.32H63.4584H61.4584V59.56H63.4584ZM63.4584 25.32H65.4584C65.4584 23.6942 65.8774 22.7854 66.4086 22.2542L64.9944 20.84L63.5802 19.4258C62.0634 20.9425 61.4584 23.0205 61.4584 25.32H63.4584ZM64.9944 20.84L66.4086 22.2542C66.9556 21.7072 67.8355 21.304 69.3464 21.304V19.304V17.304C67.1026 17.304 65.0812 17.9248 63.5802 19.4258L64.9944 20.84ZM69.3464 19.304V21.304C70.9207 21.304 71.769 21.7173 72.2544 22.2238L73.6984 20.84L75.1424 19.4562C73.6651 17.9147 71.6121 17.304 69.3464 17.304V19.304ZM73.6984 20.84L72.2842 22.2542C72.8154 22.7854 73.2344 23.6942 73.2344 25.32H75.2344H77.2344C77.2344 23.0205 76.6294 20.9425 75.1126 19.4258L73.6984 20.84ZM75.2344 25.32H73.2344V59.56H75.2344H77.2344V25.32H75.2344ZM75.2344 59.56H73.2344C73.2344 61.1449 72.8342 62.095 72.2905 62.6859L73.7624 64.04L75.2342 65.3941C76.6533 63.8517 77.2344 61.8151 77.2344 59.56H75.2344ZM73.7624 64.04L72.3184 62.6562C71.8407 63.1546 70.9786 63.576 69.3464 63.576V65.576V67.576C71.6395 67.576 73.7214 66.9734 75.2064 65.4238L73.7624 64.04ZM83.5879 64.168L82.1412 65.549L82.1572 65.5658L82.1737 65.5822L83.5879 64.168ZM83.7159 20.712L85.0644 22.189L85.0816 22.1733L85.0983 22.1573L83.7159 20.712ZM91.3959 20.2L90.249 21.8385L90.2952 21.8708L90.3432 21.9005L91.3959 20.2ZM93.8279 23.016L92.0742 23.9777L92.0806 23.9892L93.8279 23.016ZM107.588 47.72V49.72H110.991L109.335 46.7468L107.588 47.72ZM105.348 47.72L103.599 46.7503L101.952 49.72H105.348V47.72ZM119.044 23.016L117.314 22.0117L117.304 22.0289L117.295 22.0463L119.044 23.016ZM121.476 20.2L122.566 21.8769L122.576 21.8705L122.585 21.8641L121.476 20.2ZM128.964 20.712L127.517 22.093L127.549 22.1266L127.583 22.1587L128.964 20.712ZM129.028 64.168L130.475 65.549L129.028 64.168ZM121.092 64.168L119.645 65.549L119.661 65.5658L119.678 65.5822L121.092 64.168ZM119.748 38.184V36.184H117.748V38.184H119.748ZM121.092 38.184L122.826 39.1809L124.549 36.184H121.092V38.184ZM110.788 56.104L112.475 57.1777L112.499 57.1399L112.522 57.1009L110.788 56.104ZM108.868 58.216L107.735 56.5679L107.71 56.5852L107.685 56.6032L108.868 58.216ZM101.764 56.104L100.031 57.1029L100.037 57.1122L100.042 57.1215L101.764 56.104ZM91.3959 38.12V36.12H87.9343L89.6632 39.1189L91.3959 38.12ZM92.8679 38.12H94.8679V36.12H92.8679V38.12ZM91.5239 64.168L90.0772 62.787L91.5239 64.168ZM87.5559 65.576V63.576C86.2211 63.576 85.4668 63.2185 85.0021 62.7538L83.5879 64.168L82.1737 65.5822C83.5863 66.9949 85.4773 67.576 87.5559 67.576V65.576ZM83.5879 64.168L85.0346 62.787C84.5944 62.3259 84.2439 61.5594 84.2439 60.2H82.2439H80.2439C80.2439 62.2539 80.7893 64.1328 82.1412 65.549L83.5879 64.168ZM82.2439 60.2H84.2439V24.68H82.2439H80.2439V60.2H82.2439ZM82.2439 24.68H84.2439C84.2439 23.3054 84.6187 22.5959 85.0644 22.189L83.7159 20.712L82.3673 19.235C80.8504 20.6201 80.2439 22.5559 80.2439 24.68H82.2439ZM83.7159 20.712L85.0983 22.1573C85.6007 21.6767 86.4294 21.304 87.8759 21.304V19.304V17.304C85.7384 17.304 83.7937 17.8699 82.3334 19.2667L83.7159 20.712ZM87.8759 19.304V21.304C89.1296 21.304 89.8488 21.5584 90.249 21.8385L91.3959 20.2L92.5428 18.5615C91.2363 17.647 89.6088 17.304 87.8759 17.304V19.304ZM91.3959 20.2L90.3432 21.9005C90.846 22.2118 91.4475 22.8348 92.0743 23.9777L93.8279 23.016L95.5815 22.0543C94.7576 20.5519 93.7378 19.2975 92.4486 18.4995L91.3959 20.2ZM93.8279 23.016L92.0806 23.9892L105.841 48.6932L107.588 47.72L109.335 46.7468L95.5751 22.0428L93.8279 23.016ZM107.588 47.72V45.72H105.348V47.72V49.72H107.588V47.72ZM105.348 47.72L107.097 48.6897L120.793 23.9857L119.044 23.016L117.295 22.0463L103.599 46.7503L105.348 47.72ZM119.044 23.016L120.773 24.0203C121.456 22.844 122.075 22.1963 122.566 21.8769L121.476 20.2L120.386 18.5231C119.171 19.3131 118.167 20.5427 117.314 22.0117L119.044 23.016ZM121.476 20.2L122.585 21.8641C123.048 21.5554 123.814 21.304 125.06 21.304V19.304V17.304C123.319 17.304 121.695 17.6499 120.366 18.5359L121.476 20.2ZM125.06 19.304V21.304C126.4 21.304 127.107 21.6634 127.517 22.093L128.964 20.712L130.411 19.331C129.029 17.8833 127.133 17.304 125.06 17.304V19.304ZM128.964 20.712L127.583 22.1587C128.003 22.5599 128.372 23.28 128.372 24.68H130.372H132.372C132.372 22.5813 131.802 20.6561 130.345 19.2653L128.964 20.712ZM130.372 24.68H128.372V60.2H130.372H132.372V24.68H130.372ZM130.372 60.2H128.372C128.372 61.5594 128.021 62.3259 127.581 62.787L129.028 64.168L130.475 65.549C131.826 64.1328 132.372 62.2539 132.372 60.2H130.372ZM129.028 64.168L127.581 62.787C127.18 63.2074 126.46 63.576 125.06 63.576V65.576V67.576C127.159 67.576 129.084 67.006 130.475 65.549L129.028 64.168ZM125.06 65.576V63.576C123.725 63.576 122.971 63.2185 122.506 62.7538L121.092 64.168L119.678 65.5822C121.09 66.9949 122.981 67.576 125.06 67.576V65.576ZM121.092 64.168L122.539 62.787C122.098 62.3259 121.748 61.5594 121.748 60.2H119.748H117.748C117.748 62.2539 118.293 64.1328 119.645 65.549L121.092 64.168ZM119.748 60.2H121.748V38.184H119.748H117.748V60.2H119.748ZM119.748 38.184V40.184H121.092V38.184V36.184H119.748V38.184ZM121.092 38.184L119.358 37.1871L109.054 55.1071L110.788 56.104L112.522 57.1009L122.826 39.1809L121.092 38.184ZM110.788 56.104L109.101 55.0302C108.601 55.8156 108.134 56.2934 107.735 56.5679L108.868 58.216L110.001 59.8641C110.967 59.1999 111.78 58.2697 112.475 57.1777L110.788 56.104ZM108.868 58.216L107.685 56.6032C107.501 56.7384 107.093 56.92 106.244 56.92V58.92V60.92C107.614 60.92 108.955 60.6322 110.051 59.8288L108.868 58.216ZM106.244 58.92V56.92C105.466 56.92 105.018 56.7502 104.753 56.5679L103.62 58.216L102.487 59.8641C103.587 60.6205 104.888 60.92 106.244 60.92V58.92ZM103.62 58.216L104.753 56.5679C104.373 56.3069 103.937 55.8503 103.486 55.0865L101.764 56.104L100.042 57.1215C100.7 58.235 101.501 59.1864 102.487 59.8641L103.62 58.216ZM101.764 56.104L103.497 55.1051L93.1286 37.1211L91.3959 38.12L89.6632 39.1189L100.031 57.1029L101.764 56.104ZM91.3959 38.12V40.12H92.8679V38.12V36.12H91.3959V38.12ZM92.8679 38.12H90.8679V60.2H92.8679H94.8679V38.12H92.8679ZM92.8679 60.2H90.8679C90.8679 61.5594 90.5173 62.3259 90.0772 62.787L91.5239 64.168L92.9706 65.549C94.3224 64.1328 94.8679 62.2539 94.8679 60.2H92.8679ZM91.5239 64.168L90.0772 62.787C89.6759 63.2074 88.9559 63.576 87.5559 63.576V65.576V67.576C89.6546 67.576 91.5798 67.006 92.9706 65.549L91.5239 64.168ZM136.182 64.68L135.02 66.3075L135.046 66.3262L135.073 66.3441L136.182 64.68ZM134.518 62.12L132.554 62.4977L132.556 62.505L132.557 62.5122L134.518 62.12ZM135.094 58.408L133.281 57.5654L133.271 57.5858L133.262 57.6064L135.094 58.408ZM151.03 24.104L152.844 24.9466L152.846 24.9421L151.03 24.104ZM153.846 20.456L152.737 18.7919L152.722 18.8016L152.708 18.8116L153.846 20.456ZM161.526 20.456L160.358 22.0791L160.373 22.0899L160.388 22.1004L161.526 20.456ZM164.406 24.104L166.22 23.2614L166.212 23.2446L166.204 23.2281L164.406 24.104ZM180.342 58.408L178.529 59.2506L178.541 59.2767L178.554 59.3024L180.342 58.408ZM181.046 62.12L179.082 61.7423L179.075 61.779L179.07 61.8159L181.046 62.12ZM179.446 64.68L178.337 63.0159L178.318 63.0285L178.299 63.0415L179.446 64.68ZM172.278 64.424L170.977 65.9425L170.994 65.9574L171.012 65.9719L172.278 64.424ZM169.846 60.712L171.687 59.9297L171.687 59.9294L169.846 60.712ZM166.39 52.584L167.568 50.9675L161.717 46.7048L164.55 53.3666L166.39 52.584ZM170.87 55.848V57.848H177.012L172.048 54.2315L170.87 55.848ZM144.502 55.848L143.336 54.2236L138.29 57.848H144.502V55.848ZM149.046 52.584L150.887 53.3666L153.683 46.7911L147.88 50.9596L149.046 52.584ZM145.59 60.712L147.414 61.5327L147.423 61.5137L147.431 61.4946L145.59 60.712ZM143.222 64.424L141.847 62.9721L143.222 64.424ZM157.622 32.168V30.168H156.292L155.778 31.3955L157.622 32.168ZM150.198 49.896L148.471 50.9037L150.493 54.3703L152.043 50.6685L150.198 49.896ZM148.406 46.824V44.824H144.924L146.679 47.8317L148.406 46.824ZM167.03 46.824L168.758 47.8317L170.512 44.824H167.03V46.824ZM165.238 49.896L163.396 50.6742L164.952 54.357L166.966 50.9037L165.238 49.896ZM157.75 32.168L159.593 31.3898L159.077 30.168H157.75V32.168ZM139.51 65.576V63.576C138.492 63.576 137.791 63.3488 137.292 63.0159L136.182 64.68L135.073 66.3441C136.366 67.2059 137.884 67.576 139.51 67.576V65.576ZM136.182 64.68L137.345 63.0525C136.857 62.7039 136.592 62.2894 136.48 61.7278L134.518 62.12L132.557 62.5122C132.872 64.0839 133.716 65.3761 135.02 66.3075L136.182 64.68ZM134.518 62.12L136.482 61.7423C136.366 61.1394 136.44 60.321 136.927 59.2096L135.094 58.408L133.262 57.6064C132.554 59.2256 132.244 60.8819 132.554 62.4977L134.518 62.12ZM135.094 58.408L136.908 59.2506L152.844 24.9466L151.03 24.104L149.217 23.2614L133.281 57.5654L135.094 58.408ZM151.03 24.104L152.846 24.9421C153.516 23.4907 154.256 22.6047 154.985 22.1004L153.846 20.456L152.708 18.8116C151.218 19.8433 150.081 21.3893 149.214 23.2659L151.03 24.104ZM153.846 20.456L154.956 22.1201C155.763 21.5819 156.675 21.304 157.75 21.304V19.304V17.304C155.925 17.304 154.234 17.7941 152.737 18.7919L153.846 20.456ZM157.75 19.304V21.304C158.827 21.304 159.667 21.5815 160.358 22.0791L161.526 20.456L162.695 18.8329C161.253 17.7945 159.575 17.304 157.75 17.304V19.304ZM161.526 20.456L160.388 22.1004C161.13 22.6138 161.895 23.5149 162.608 24.9799L164.406 24.104L166.204 23.2281C165.297 21.3651 164.142 19.8342 162.665 18.8116L161.526 20.456ZM164.406 24.104L162.593 24.9466L178.529 59.2506L180.342 58.408L182.156 57.5654L166.22 23.2614L164.406 24.104ZM180.342 58.408L178.554 59.3024C179.108 60.4114 179.188 61.1941 179.082 61.7423L181.046 62.12L183.01 62.4977C183.332 60.8272 182.942 59.1353 182.131 57.5136L180.342 58.408ZM181.046 62.12L179.07 61.8159C178.98 62.3968 178.744 62.7446 178.337 63.0159L179.446 64.68L180.556 66.3441C181.941 65.4207 182.771 64.0619 183.023 62.4241L181.046 62.12ZM179.446 64.68L178.299 63.0415C177.853 63.3543 177.211 63.576 176.246 63.576V65.576V67.576C177.842 67.576 179.334 67.2003 180.593 66.3185L179.446 64.68ZM176.246 65.576V63.576C174.816 63.576 174.005 63.2528 173.545 62.8761L172.278 64.424L171.012 65.9719C172.429 67.1312 174.263 67.576 176.246 67.576V65.576ZM172.278 64.424L173.58 62.9055C173.014 62.4205 172.354 61.4983 171.687 59.9297L169.846 60.712L168.006 61.4943C168.79 63.339 169.751 64.8915 170.977 65.9425L172.278 64.424ZM169.846 60.712L171.687 59.9294L168.231 51.8014L166.39 52.584L164.55 53.3666L168.006 61.4946L169.846 60.712ZM166.39 52.584L165.213 54.2005L169.693 57.4645L170.87 55.848L172.048 54.2315L167.568 50.9675L166.39 52.584ZM170.87 55.848V53.848H144.502V55.848V57.848H170.87V55.848ZM144.502 55.848L145.669 57.4724L150.213 54.2084L149.046 52.584L147.88 50.9596L143.336 54.2236L144.502 55.848ZM149.046 52.584L147.206 51.8014L143.75 59.9294L145.59 60.712L147.431 61.4946L150.887 53.3666L149.046 52.584ZM145.59 60.712L143.767 59.8913C143.043 61.4993 142.383 62.4646 141.847 62.9721L143.222 64.424L144.598 65.8759C145.683 64.8474 146.602 63.338 147.414 61.5327L145.59 60.712ZM143.222 64.424L141.847 62.9721C141.555 63.249 140.909 63.576 139.51 63.576V65.576V67.576C141.44 67.576 143.269 67.135 144.598 65.8759L143.222 64.424ZM157.622 32.168L155.778 31.3955L148.354 49.1235L150.198 49.896L152.043 50.6685L159.467 32.9405L157.622 32.168ZM150.198 49.896L151.926 48.8883L150.134 45.8163L148.406 46.824L146.679 47.8317L148.471 50.9037L150.198 49.896ZM148.406 46.824V48.824H167.03V46.824V44.824H148.406V46.824ZM167.03 46.824L165.303 45.8163L163.511 48.8883L165.238 49.896L166.966 50.9037L168.758 47.8317L167.03 46.824ZM165.238 49.896L167.081 49.1178L159.593 31.3898L157.75 32.168L155.908 32.9462L163.396 50.6742L165.238 49.896ZM157.75 32.168V30.168H157.622V32.168V34.168H157.75V32.168Z" fill="url(#paint3_linear_210_4)" mask="url(#path-5-outside-3_210_4)"/>
<defs>
<filter id="filter0_dd_210_4" x="0.974826" y="5.06056" width="207.227" height="86.128" filterUnits="userSpaceOnUse" color-interpolation-filters="sRGB">
<feFlood flood-opacity="0" result="BackgroundImageFix"/>
<feColorMatrix in="SourceAlpha" type="matrix" values="0 0 0 0 0 0 0 0 0 0 0 0 0 0 0 0 0 0 127 0" result="hardAlpha"/>
<feOffset dx="2" dy="3"/>
<feGaussianBlur stdDeviation="3.3"/>
<feComposite in2="hardAlpha" operator="out"/>
<feColorMatrix type="matrix" values="0 0 0 0 0.960784 0 0 0 0 0.619608 0 0 0 0 0.0431373 0 0 0 0.1 0"/>
<feBlend mode="normal" in2="BackgroundImageFix" result="effect1_dropShadow_210_4"/>
<feColorMatrix in="SourceAlpha" type="matrix" values="0 0 0 0 0 0 0 0 0 0 0 0 0 0 0 0 0 0 127 0" result="hardAlpha"/>
<feOffset dx="1" dy="1"/>
<feGaussianBlur stdDeviation="5.9"/>
<feComposite in2="hardAlpha" operator="out"/>
<feColorMatrix type="matrix" values="0 0 0 0 0.486275 0 0 0 0 0.176471 0 0 0 0 0.0705882 0 0 0 0.1 0"/>
<feBlend mode="normal" in2="effect1_dropShadow_210_4" result="effect2_dropShadow_210_4"/>
<feBlend mode="normal" in="SourceGraphic" in2="effect2_dropShadow_210_4" result="shape"/>
</filter>
<linearGradient id="paint0_linear_210_4" x1="18.0804" y1="43.607" x2="196.434" y2="43.607" gradientUnits="userSpaceOnUse">
<stop stop-color="#081C15"/>
<stop offset="1" stop-color="#40916C"/>
</linearGradient>
<linearGradient id="paint1_linear_210_4" x1="107.257" y1="3.66586" x2="107.257" y2="83.5481" gradientUnits="userSpaceOnUse">
<stop stop-color="#081C15"/>
<stop offset="1" stop-color="#40916C"/>
</linearGradient>
<linearGradient id="paint2_linear_210_4" x1="18.9549" y1="39.9411" x2="197.309" y2="39.9411" gradientUnits="userSpaceOnUse">
<stop offset="0.5" stop-color="#40916C"/>
<stop offset="1" stop-color="#B7E4C7"/>
</linearGradient>
<linearGradient id="paint3_linear_210_4" x1="108.132" y1="0" x2="108.132" y2="79.8822" gradientUnits="userSpaceOnUse">
<stop stop-color="#40916C"/>
<stop offset="1" stop-color="#B7E4C7"/>
</linearGradient>
</defs>
</svg>
